<svg width="2060" height="1024" viewBox="0 0 2060 1024" fill="none" xmlns="http://www.w3.org/2000/svg">
<rect width="1440" height="1024" fill="white"/>
<g filter="url(#filter0_d)">
<rect x="207" y="100" width="1025" height="824" rx="11" fill="#006EFF"/>
</g>
<path d="M300.296 221.489C295.944 221.489 292.616 220.097 290.312 217.313C288.008 214.529 286.856 210.161 286.856 204.209C286.856 198.289 287.976 193.937 290.216 191.153C292.488 188.337 295.688 186.929 299.816 186.929C302.248 186.929 304.424 187.377 306.344 188.273C307.208 188.625 307.992 189.057 308.696 189.569L306.536 193.409H306.056C305.704 193.089 305.192 192.737 304.52 192.353C303.112 191.617 301.704 191.249 300.296 191.249C298.184 191.249 296.536 192.225 295.352 194.177C294.168 196.129 293.576 199.473 293.576 204.209C293.576 208.977 294.184 212.337 295.4 214.289C296.648 216.209 298.44 217.169 300.776 217.169C302.248 217.169 303.656 216.817 305 216.113C305.704 215.697 306.216 215.329 306.536 215.009H307.016L309.176 218.849C308.536 219.361 307.752 219.809 306.824 220.193C304.968 221.057 302.792 221.489 300.296 221.489ZM313.504 189.329L315.424 187.409H320.224V198.689C320.544 198.369 321.008 198.017 321.616 197.633C322.896 196.897 324.192 196.529 325.504 196.529C328.416 196.529 330.656 197.329 332.224 198.929C333.824 200.497 334.624 202.737 334.624 205.649V221.009H327.904V205.649C327.904 204.145 327.584 203.009 326.944 202.241C326.304 201.473 325.424 201.089 324.304 201.089C323.248 201.089 322.24 201.569 321.28 202.529C320.96 202.913 320.608 203.393 320.224 203.969V221.009H313.504V189.329ZM348.553 221.489C345.737 221.489 343.545 220.817 341.977 219.473C340.441 218.097 339.673 216.289 339.673 214.049C339.673 211.649 340.537 209.777 342.265 208.433C344.025 207.057 346.761 206.369 350.473 206.369H353.833V205.649C353.833 203.953 353.465 202.737 352.729 202.001C351.993 201.233 350.841 200.849 349.273 200.849C347.929 200.849 346.697 201.169 345.577 201.809C345.129 202.033 344.681 202.353 344.233 202.769H343.753L341.593 198.929C342.361 198.417 343.113 198.017 343.849 197.729C345.929 196.929 347.897 196.529 349.753 196.529C351.993 196.529 353.929 196.929 355.561 197.729C357.193 198.497 358.425 199.569 359.257 200.945C360.121 202.321 360.553 203.889 360.553 205.649V221.009H355.753L355.273 218.129H355.033C354.489 218.833 353.945 219.393 353.401 219.809C352.057 220.929 350.441 221.489 348.553 221.489ZM349.753 216.929C350.745 216.929 351.721 216.449 352.681 215.489C353.129 215.041 353.513 214.561 353.833 214.049V210.689H350.473C347.753 210.689 346.393 211.809 346.393 214.049C346.393 214.913 346.681 215.617 347.257 216.161C347.865 216.673 348.697 216.929 349.753 216.929ZM376.395 221.489C373.643 221.489 371.467 220.737 369.867 219.233C368.299 217.729 367.515 215.761 367.515 213.329V201.329H364.395V198.449L371.595 191.249H374.235V197.009H379.755V201.329H374.235V213.329C374.235 214.609 374.475 215.569 374.955 216.209C375.435 216.849 376.075 217.169 376.875 217.169C377.835 217.169 378.779 216.849 379.707 216.209C380.123 215.921 380.539 215.601 380.955 215.249H381.435L383.595 219.089C382.763 219.633 382.043 220.033 381.435 220.289C379.707 221.089 378.027 221.489 376.395 221.489ZM413.107 221.489C409.107 221.489 405.987 220.097 403.747 217.313C401.507 214.497 400.387 210.129 400.387 204.209C400.387 198.289 401.507 193.937 403.747 191.153C405.987 188.337 409.107 186.929 413.107 186.929C417.107 186.929 420.227 188.337 422.467 191.153C424.707 193.937 425.827 198.289 425.827 204.209C425.827 210.129 424.707 214.497 422.467 217.313C420.227 220.097 417.107 221.489 413.107 221.489ZM413.107 217.169C414.867 217.169 416.307 216.177 417.427 214.193C418.547 212.209 419.107 208.881 419.107 204.209C419.107 199.537 418.547 196.209 417.427 194.225C416.307 192.241 414.867 191.249 413.107 191.249C411.347 191.249 409.907 192.241 408.787 194.225C407.667 196.209 407.107 199.537 407.107 204.209C407.107 208.881 407.667 212.209 408.787 214.193C409.907 216.177 411.347 217.169 413.107 217.169ZM431.582 197.009H436.382L436.862 199.889H437.102C437.422 199.409 437.966 198.849 438.734 198.209C440.238 197.089 441.854 196.529 443.582 196.529C446.494 196.529 448.734 197.329 450.302 198.929C451.902 200.497 452.702 202.737 452.702 205.649V221.009H445.982V205.649C445.982 204.145 445.662 203.009 445.022 202.241C444.382 201.473 443.502 201.089 442.382 201.089C441.326 201.089 440.318 201.569 439.358 202.529C439.038 202.913 438.686 203.393 438.302 203.969V221.009H431.582V197.009ZM459.191 221.009V189.329L461.111 187.409H465.911V221.009H459.191ZM476.004 193.889C475.044 193.889 474.196 193.537 473.46 192.833C472.756 192.097 472.404 191.249 472.404 190.289C472.404 189.329 472.756 188.497 473.46 187.793C474.196 187.057 475.044 186.689 476.004 186.689C476.964 186.689 477.796 187.057 478.5 187.793C479.236 188.497 479.604 189.329 479.604 190.289C479.604 191.249 479.236 192.097 478.5 192.833C477.796 193.537 476.964 193.889 476.004 193.889ZM472.644 221.009V197.009H479.364V221.009H472.644ZM486.097 197.009H490.897L491.377 199.889H491.617C491.937 199.409 492.481 198.849 493.249 198.209C494.753 197.089 496.369 196.529 498.097 196.529C501.009 196.529 503.249 197.329 504.817 198.929C506.417 200.497 507.217 202.737 507.217 205.649V221.009H500.497V205.649C500.497 204.145 500.177 203.009 499.537 202.241C498.897 201.473 498.017 201.089 496.897 201.089C495.841 201.089 494.833 201.569 493.873 202.529C493.553 202.913 493.201 203.393 492.817 203.969V221.009H486.097V197.009ZM524.267 221.489C516.267 221.489 512.267 217.329 512.267 209.009C512.267 204.913 513.195 201.809 515.051 199.697C516.907 197.585 519.499 196.529 522.827 196.529C526.123 196.529 528.699 197.553 530.555 199.601C532.443 201.649 533.387 204.625 533.387 208.529V209.729L531.947 211.169H518.987C518.987 215.169 520.907 217.169 524.747 217.169C526.091 217.169 527.323 216.849 528.443 216.209C528.891 215.985 529.339 215.665 529.787 215.249H530.267L532.427 219.089C531.531 219.633 530.763 220.033 530.123 220.289C528.203 221.089 526.251 221.489 524.267 221.489ZM526.667 206.849C526.667 204.929 526.283 203.457 525.515 202.433C524.779 201.377 523.883 200.849 522.827 200.849C521.771 200.849 520.859 201.377 520.091 202.433C519.355 203.457 518.987 204.929 518.987 206.849H526.667Z" fill="white"/>
<rect x="287.109" y="575.578" width="861.11" height="68.4005" fill="white"/>
<path opacity="0.7" d="M287.649 515.365H294.129C297.177 515.365 299.433 516.061 300.897 517.453C302.385 518.845 303.129 520.909 303.129 523.645C303.129 526.381 302.385 528.445 300.897 529.837C299.433 531.229 297.177 531.925 294.129 531.925H291.249V540.565H287.649V515.365ZM294.129 529.405C295.953 529.405 297.309 528.937 298.197 528.001C299.085 527.065 299.529 525.613 299.529 523.645C299.529 521.677 299.085 520.225 298.197 519.289C297.309 518.353 295.953 517.885 294.129 517.885H291.249V529.405H294.129ZM311.621 540.925C309.749 540.925 308.285 540.433 307.229 539.449C306.197 538.441 305.681 537.073 305.681 535.345C305.681 533.641 306.293 532.321 307.517 531.385C308.765 530.425 310.733 529.945 313.421 529.945H316.301V529.045C316.301 527.629 315.965 526.561 315.293 525.841C314.645 525.097 313.721 524.725 312.521 524.725C311.657 524.725 310.721 525.001 309.713 525.553C309.209 525.841 308.825 526.105 308.561 526.345H308.201L306.941 524.185C307.421 523.825 307.961 523.501 308.561 523.213C309.857 522.541 311.297 522.205 312.881 522.205C314.249 522.205 315.461 522.505 316.517 523.105C317.573 523.681 318.401 524.497 319.001 525.553C319.601 526.585 319.901 527.749 319.901 529.045V540.565H317.381L317.021 538.405H316.841C316.505 538.885 316.085 539.305 315.581 539.665C314.525 540.505 313.205 540.925 311.621 540.925ZM312.521 538.225C313.409 538.225 314.309 537.865 315.221 537.145C315.629 536.809 315.989 536.449 316.301 536.065V532.465H313.421C312.053 532.465 311.021 532.729 310.325 533.257C309.629 533.785 309.281 534.481 309.281 535.345C309.281 536.281 309.545 537.001 310.073 537.505C310.625 537.985 311.441 538.225 312.521 538.225ZM330.333 540.925C328.365 540.925 326.709 540.601 325.365 539.953C324.669 539.641 324.105 539.305 323.673 538.945L324.933 536.785H325.293C325.557 537.025 325.977 537.301 326.553 537.613C327.657 538.141 328.797 538.405 329.973 538.405C331.413 538.405 332.457 538.177 333.105 537.721C333.777 537.265 334.113 536.653 334.113 535.885C334.113 535.093 333.765 534.493 333.069 534.085C332.397 533.677 331.341 533.233 329.901 532.753C328.629 532.321 327.609 531.925 326.841 531.565C326.073 531.205 325.413 530.689 324.861 530.017C324.309 529.345 324.033 528.481 324.033 527.425C324.033 525.817 324.597 524.545 325.725 523.609C326.877 522.673 328.593 522.205 330.873 522.205C332.577 522.205 334.125 522.541 335.517 523.213C336.189 523.525 336.741 523.849 337.173 524.185L335.913 526.345H335.553C335.193 526.081 334.785 525.817 334.329 525.553C333.273 525.001 332.241 524.725 331.233 524.725C330.033 524.725 329.133 524.953 328.533 525.409C327.933 525.841 327.633 526.393 327.633 527.065C327.633 527.857 327.969 528.457 328.641 528.865C329.337 529.273 330.405 529.717 331.845 530.197C333.117 530.629 334.137 531.025 334.905 531.385C335.673 531.745 336.333 532.261 336.885 532.933C337.437 533.605 337.713 534.469 337.713 535.525C337.713 537.229 337.113 538.561 335.913 539.521C334.713 540.457 332.853 540.925 330.333 540.925ZM346.188 540.925C344.22 540.925 342.564 540.601 341.22 539.953C340.524 539.641 339.96 539.305 339.528 538.945L340.788 536.785H341.148C341.412 537.025 341.832 537.301 342.408 537.613C343.512 538.141 344.652 538.405 345.828 538.405C347.268 538.405 348.312 538.177 348.96 537.721C349.632 537.265 349.968 536.653 349.968 535.885C349.968 535.093 349.62 534.493 348.924 534.085C348.252 533.677 347.196 533.233 345.756 532.753C344.484 532.321 343.464 531.925 342.696 531.565C341.928 531.205 341.268 530.689 340.716 530.017C340.164 529.345 339.888 528.481 339.888 527.425C339.888 525.817 340.452 524.545 341.58 523.609C342.732 522.673 344.448 522.205 346.728 522.205C348.432 522.205 349.98 522.541 351.372 523.213C352.044 523.525 352.596 523.849 353.028 524.185L351.768 526.345H351.408C351.048 526.081 350.64 525.817 350.184 525.553C349.128 525.001 348.096 524.725 347.088 524.725C345.888 524.725 344.988 524.953 344.388 525.409C343.788 525.841 343.488 526.393 343.488 527.065C343.488 527.857 343.824 528.457 344.496 528.865C345.192 529.273 346.26 529.717 347.7 530.197C348.972 530.629 349.992 531.025 350.76 531.385C351.528 531.745 352.188 532.261 352.74 532.933C353.292 533.605 353.568 534.469 353.568 535.525C353.568 537.229 352.968 538.561 351.768 539.521C350.568 540.457 348.708 540.925 346.188 540.925ZM355.367 522.565H358.787L361.667 533.545C361.715 533.737 361.763 534.001 361.811 534.337C361.859 534.649 361.907 534.913 361.955 535.129L362.027 535.885H362.171C362.171 535.717 362.195 535.465 362.243 535.129C362.291 534.913 362.339 534.673 362.387 534.409C362.435 534.145 362.495 533.857 362.567 533.545L365.519 522.565H369.119L371.927 533.545C371.975 533.737 372.023 534.001 372.071 534.337C372.119 534.649 372.167 534.913 372.215 535.129L372.323 535.885H372.467C372.467 535.717 372.491 535.465 372.539 535.129C372.659 534.385 372.755 533.857 372.827 533.545L375.707 522.565H379.127L374.447 540.565H370.847L367.787 529.225C367.667 528.841 367.559 528.313 367.463 527.641L367.319 526.705H367.175L367.031 527.641C366.983 528.049 366.875 528.577 366.707 529.225L363.647 540.565H360.047L355.367 522.565ZM389.925 540.925C387.501 540.925 385.605 540.133 384.237 538.549C382.869 536.965 382.185 534.637 382.185 531.565C382.185 528.493 382.869 526.165 384.237 524.581C385.605 522.997 387.501 522.205 389.925 522.205C392.325 522.205 394.209 522.997 395.577 524.581C396.969 526.165 397.665 528.493 397.665 531.565C397.665 534.637 396.969 536.965 395.577 538.549C394.209 540.133 392.325 540.925 389.925 540.925ZM389.925 538.405C391.173 538.405 392.169 537.865 392.913 536.785C393.681 535.681 394.065 533.941 394.065 531.565C394.065 529.189 393.681 527.461 392.913 526.381C392.169 525.277 391.173 524.725 389.925 524.725C388.677 524.725 387.669 525.277 386.901 526.381C386.157 527.461 385.785 529.189 385.785 531.565C385.785 533.941 386.157 535.681 386.901 536.785C387.669 537.865 388.677 538.405 389.925 538.405ZM402.175 522.565H404.695L405.055 524.725H405.235C405.475 524.365 405.883 523.945 406.459 523.465C407.587 522.625 408.859 522.205 410.275 522.205C410.899 522.205 411.451 522.265 411.931 522.385L412.615 522.565L412.075 525.445H411.715C411.547 525.421 411.295 525.361 410.959 525.265C410.431 525.145 409.903 525.085 409.375 525.085C408.583 525.085 407.731 525.445 406.819 526.165C406.507 526.429 406.159 526.789 405.775 527.245V540.565H402.175V522.565ZM420.904 540.925C419.728 540.925 418.648 540.577 417.664 539.881C416.68 539.161 415.888 538.105 415.288 536.713C414.712 535.297 414.424 533.581 414.424 531.565C414.424 528.517 415.084 526.201 416.404 524.617C417.724 523.009 419.464 522.205 421.624 522.205C422.44 522.205 423.364 522.385 424.396 522.745L425.584 523.285V516.445L426.664 515.365H429.184V540.565H426.664L426.304 538.405H426.124C425.788 538.885 425.368 539.305 424.864 539.665C423.808 540.505 422.488 540.925 420.904 540.925ZM421.804 538.225C422.692 538.225 423.592 537.865 424.504 537.145C424.912 536.809 425.272 536.449 425.584 536.065V525.445C425.368 525.325 425.044 525.205 424.612 525.085C423.796 524.845 422.98 524.725 422.164 524.725C420.916 524.725 419.908 525.277 419.14 526.381C418.396 527.461 418.024 529.189 418.024 531.565C418.024 533.845 418.372 535.525 419.068 536.605C419.788 537.685 420.7 538.225 421.804 538.225Z" fill="white"/>
<rect x="287.109" y="377.551" width="861.11" height="68.4005" fill="white"/>
<path opacity="0.7" d="M288.984 334.106V308.906H303.024V311.426H292.584V319.706H300.864V322.226H292.584V331.586H303.024V334.106H288.984ZM306.795 316.106H309.315L309.675 318.266H309.855C310.191 317.882 310.623 317.462 311.151 317.006C312.279 316.166 313.467 315.746 314.715 315.746C316.107 315.746 317.319 316.166 318.351 317.006C318.831 317.438 319.179 317.858 319.395 318.266C319.731 317.906 320.223 317.486 320.871 317.006C322.215 316.166 323.523 315.746 324.795 315.746C325.875 315.746 326.847 316.01 327.711 316.538C328.599 317.042 329.295 317.762 329.799 318.698C330.303 319.634 330.555 320.69 330.555 321.866V334.106H326.955V321.866C326.955 320.882 326.655 320.066 326.055 319.418C325.455 318.77 324.735 318.446 323.895 318.446C323.151 318.446 322.359 318.746 321.519 319.346C321.255 319.514 320.907 319.814 320.475 320.246V334.106H316.875V321.866C316.875 320.882 316.575 320.066 315.975 319.418C315.375 318.77 314.655 318.446 313.815 318.446C313.047 318.446 312.255 318.806 311.439 319.526C311.127 319.79 310.779 320.15 310.395 320.606V334.106H306.795V316.106ZM340.624 334.466C338.752 334.466 337.288 333.974 336.232 332.99C335.2 331.982 334.684 330.614 334.684 328.886C334.684 327.182 335.296 325.862 336.52 324.926C337.768 323.966 339.736 323.486 342.424 323.486H345.304V322.586C345.304 321.17 344.968 320.102 344.296 319.382C343.648 318.638 342.724 318.266 341.524 318.266C340.66 318.266 339.724 318.542 338.716 319.094C338.212 319.382 337.828 319.646 337.564 319.886H337.204L335.944 317.726C336.424 317.366 336.964 317.042 337.564 316.754C338.86 316.082 340.3 315.746 341.884 315.746C343.252 315.746 344.464 316.046 345.52 316.646C346.576 317.222 347.404 318.038 348.004 319.094C348.604 320.126 348.904 321.29 348.904 322.586V334.106H346.384L346.024 331.946H345.844C345.508 332.426 345.088 332.846 344.584 333.206C343.528 334.046 342.208 334.466 340.624 334.466ZM341.524 331.766C342.412 331.766 343.312 331.406 344.224 330.686C344.632 330.35 344.992 329.99 345.304 329.606V326.006H342.424C341.056 326.006 340.024 326.27 339.328 326.798C338.632 327.326 338.284 328.022 338.284 328.886C338.284 329.822 338.548 330.542 339.076 331.046C339.628 331.526 340.444 331.766 341.524 331.766ZM355.915 313.226C355.291 313.226 354.775 313.022 354.367 312.614C353.959 312.206 353.755 311.69 353.755 311.066C353.755 310.442 353.959 309.926 354.367 309.518C354.775 309.11 355.291 308.906 355.915 308.906C356.539 308.906 357.055 309.11 357.463 309.518C357.871 309.926 358.075 310.442 358.075 311.066C358.075 311.69 357.871 312.206 357.463 312.614C357.055 313.022 356.539 313.226 355.915 313.226ZM354.115 334.106V316.106H357.715V334.106H354.115ZM363.115 334.106V309.986L364.195 308.906H366.715V334.106H363.115Z" fill="white"/>
<rect x="285.456" y="762.847" width="569.005" height="98.9013" fill="#006EFF" stroke="white" stroke-width="2"/>
<path d="M507.493 821.664V796.464H512.533V818.424H522.253V821.664H507.493ZM532.859 822.024C529.859 822.024 527.519 820.98 525.839 818.892C524.159 816.78 523.319 813.504 523.319 809.064C523.319 804.624 524.159 801.36 525.839 799.272C527.519 797.16 529.859 796.104 532.859 796.104C535.859 796.104 538.199 797.16 539.879 799.272C541.559 801.36 542.399 804.624 542.399 809.064C542.399 813.504 541.559 816.78 539.879 818.892C538.199 820.98 535.859 822.024 532.859 822.024ZM532.859 818.784C534.179 818.784 535.259 818.04 536.099 816.552C536.939 815.064 537.359 812.568 537.359 809.064C537.359 805.56 536.939 803.064 536.099 801.576C535.259 800.088 534.179 799.344 532.859 799.344C531.539 799.344 530.459 800.088 529.619 801.576C528.779 803.064 528.359 805.56 528.359 809.064C528.359 812.568 528.779 815.064 529.619 816.552C530.459 818.04 531.539 818.784 532.859 818.784ZM556.075 822.024C552.811 822.024 550.315 820.98 548.587 818.892C546.859 816.804 545.995 813.528 545.995 809.064C545.995 804.624 546.835 801.36 548.515 799.272C550.219 797.16 552.619 796.104 555.715 796.104C557.539 796.104 559.171 796.44 560.611 797.112C561.259 797.376 561.847 797.7 562.375 798.084L560.755 800.964H560.395C560.131 800.724 559.747 800.46 559.243 800.172C558.187 799.62 557.131 799.344 556.075 799.344C554.491 799.344 553.255 800.076 552.367 801.54C551.479 803.004 551.035 805.512 551.035 809.064C551.035 812.64 551.491 815.16 552.403 816.624C553.339 818.064 554.683 818.784 556.435 818.784C556.843 818.784 557.251 818.724 557.659 818.604C557.827 818.58 558.019 818.52 558.235 818.424V810.864H554.455V807.624H561.835L563.275 809.064V820.044C562.795 820.404 562.183 820.74 561.439 821.052C559.927 821.7 558.139 822.024 556.075 822.024ZM568.489 821.664V796.464H573.529V821.664H568.489ZM579.634 796.464H585.034L591.334 811.584L591.982 813.168L592.27 813.924H592.414L592.306 813.168C592.258 812.88 592.234 812.352 592.234 811.584V796.464H597.274V821.664H591.874L585.574 806.544L584.926 804.96L584.638 804.204H584.494L584.566 804.96C584.638 805.896 584.674 806.424 584.674 806.544V821.664H579.634V796.464Z" fill="white"/>
<path opacity="0.5" d="M997.945 717.889C995.833 717.889 994.021 717.565 992.509 716.917C991.717 716.605 991.069 716.269 990.565 715.909L991.825 713.749H992.185C992.521 713.989 993.013 714.265 993.661 714.577C994.957 715.105 996.265 715.369 997.585 715.369C999.193 715.369 1000.43 714.985 1001.29 714.217C1002.18 713.425 1002.62 712.369 1002.62 711.049C1002.62 710.209 1002.4 709.501 1001.94 708.925C1001.48 708.325 1000.92 707.833 1000.25 707.449C999.577 707.065 998.653 706.597 997.477 706.045C996.061 705.421 994.921 704.845 994.057 704.317C993.193 703.765 992.449 703.045 991.825 702.157C991.225 701.245 990.925 700.129 990.925 698.809C990.925 697.489 991.225 696.313 991.825 695.281C992.449 694.249 993.325 693.445 994.453 692.869C995.605 692.269 996.949 691.969 998.485 691.969C1000.5 691.969 1002.25 692.305 1003.74 692.977C1004.39 693.241 1004.98 693.565 1005.5 693.949L1004.24 696.109H1003.88C1003.57 695.845 1003.14 695.581 1002.59 695.317C1001.39 694.765 1000.14 694.489 998.845 694.489C997.621 694.489 996.589 694.885 995.749 695.677C994.933 696.445 994.525 697.369 994.525 698.449C994.525 699.289 994.753 700.009 995.209 700.609C995.665 701.185 996.229 701.665 996.901 702.049C997.573 702.433 998.497 702.901 999.673 703.453C1001.09 704.077 1002.23 704.665 1003.09 705.217C1003.96 705.745 1004.69 706.465 1005.29 707.377C1005.91 708.265 1006.22 709.369 1006.22 710.689C1006.22 712.897 1005.5 714.649 1004.06 715.945C1002.62 717.241 1000.58 717.889 997.945 717.889ZM1011.98 696.649C1011.36 696.649 1010.84 696.445 1010.43 696.037C1010.02 695.629 1009.82 695.113 1009.82 694.489C1009.82 693.865 1010.02 693.349 1010.43 692.941C1010.84 692.533 1011.36 692.329 1011.98 692.329C1012.6 692.329 1013.12 692.533 1013.53 692.941C1013.94 693.349 1014.14 693.865 1014.14 694.489C1014.14 695.113 1013.94 695.629 1013.53 696.037C1013.12 696.445 1012.6 696.649 1011.98 696.649ZM1010.18 717.529V699.529H1013.78V717.529H1010.18ZM1019.18 699.529H1021.7L1022.06 701.689H1022.24C1022.5 701.305 1022.92 700.885 1023.5 700.429C1024.68 699.589 1026 699.169 1027.46 699.169C1029.26 699.169 1030.72 699.745 1031.85 700.897C1033 702.025 1033.58 703.489 1033.58 705.289V717.529H1029.98V705.289C1029.98 704.281 1029.66 703.465 1029.01 702.841C1028.38 702.193 1027.57 701.869 1026.56 701.869C1025.67 701.869 1024.77 702.229 1023.86 702.949C1023.48 703.285 1023.12 703.645 1022.78 704.029V717.529H1019.18V699.529ZM1044.92 725.089C1043.29 725.089 1041.85 724.765 1040.6 724.117C1039.95 723.805 1039.41 723.469 1038.98 723.109L1040.24 720.949H1040.6C1040.84 721.189 1041.22 721.465 1041.75 721.777C1042.71 722.305 1043.65 722.569 1044.56 722.569C1046.09 722.569 1047.22 722.197 1047.94 721.453C1048.69 720.709 1049.06 719.521 1049.06 717.889V716.809C1048.7 717.025 1048.3 717.205 1047.87 717.349C1046.98 717.709 1046.06 717.889 1045.1 717.889C1042.94 717.889 1041.2 717.097 1039.88 715.513C1038.56 713.905 1037.9 711.577 1037.9 708.529C1037.9 706.513 1038.19 704.809 1038.76 703.417C1039.36 702.001 1040.15 700.945 1041.14 700.249C1042.12 699.529 1043.2 699.169 1044.38 699.169C1045.84 699.169 1047.16 699.589 1048.34 700.429C1048.91 700.885 1049.33 701.305 1049.6 701.689H1049.78L1050.14 699.529H1052.66V717.889C1052.66 720.073 1051.96 721.813 1050.57 723.109C1049.2 724.429 1047.32 725.089 1044.92 725.089ZM1045.64 715.369C1046.45 715.369 1047.27 715.249 1048.09 715.009C1048.52 714.889 1048.84 714.769 1049.06 714.649V704.029C1048.72 703.621 1048.36 703.261 1047.98 702.949C1047.07 702.229 1046.17 701.869 1045.28 701.869C1044.17 701.869 1043.26 702.409 1042.54 703.489C1041.85 704.569 1041.5 706.249 1041.5 708.529C1041.5 710.905 1041.87 712.645 1042.61 713.749C1043.38 714.829 1044.39 715.369 1045.64 715.369ZM1076.96 717.889C1074.35 717.889 1072.34 717.193 1070.95 715.801C1069.56 714.385 1068.86 712.321 1068.86 709.609V692.329H1072.46V709.609C1072.46 711.553 1072.86 713.005 1073.65 713.965C1074.44 714.901 1075.55 715.369 1076.96 715.369C1078.38 715.369 1079.48 714.901 1080.28 713.965C1081.07 713.005 1081.46 711.553 1081.46 709.609V692.329H1085.06V709.609C1085.06 712.321 1084.37 714.385 1082.98 715.801C1081.58 717.193 1079.58 717.889 1076.96 717.889ZM1090.83 699.529H1093.35L1093.71 701.689H1093.89C1094.15 701.305 1094.57 700.885 1095.15 700.429C1096.32 699.589 1097.64 699.169 1099.11 699.169C1100.28 699.169 1101.36 699.529 1102.35 700.249C1103.33 700.945 1104.11 702.001 1104.69 703.417C1105.29 704.809 1105.59 706.513 1105.59 708.529C1105.59 711.577 1104.93 713.905 1103.61 715.513C1102.29 717.097 1100.55 717.889 1098.39 717.889C1097.43 717.889 1096.49 717.709 1095.58 717.349C1095.12 717.205 1094.74 717.025 1094.43 716.809V723.649L1093.35 724.729H1090.83V699.529ZM1097.85 715.369C1099.1 715.369 1100.09 714.829 1100.84 713.749C1101.6 712.645 1101.99 710.905 1101.99 708.529C1101.99 706.249 1101.63 704.569 1100.91 703.489C1100.21 702.409 1099.31 701.869 1098.21 701.869C1097.32 701.869 1096.42 702.229 1095.51 702.949C1095.12 703.285 1094.76 703.645 1094.43 704.029V714.649C1094.67 714.769 1094.99 714.889 1095.4 715.009C1096.22 715.249 1097.03 715.369 1097.85 715.369Z" fill="white"/>
<rect x="1632" y="58" width="424" height="907" rx="31" stroke="#141311" stroke-opacity="0.8" stroke-width="8"/>
<rect x="1638.54" y="64.5264" width="410.935" height="893.96" rx="22.5" fill="white" stroke="black" stroke-width="5"/>
<rect x="1641" y="66" width="406" height="890" rx="20" fill="#006EFF"/>
<path d="M1759.25 297.849C1758.85 301.232 1757.6 303.847 1755.49 305.693C1753.39 307.524 1750.6 308.439 1747.12 308.439C1743.34 308.439 1740.31 307.084 1738.02 304.375C1735.75 301.665 1734.61 298.039 1734.61 293.498V290.422C1734.61 287.448 1735.14 284.833 1736.2 282.578C1737.27 280.322 1738.77 278.593 1740.72 277.392C1742.67 276.176 1744.93 275.568 1747.49 275.568C1750.89 275.568 1753.61 276.521 1755.66 278.425C1757.72 280.314 1758.91 282.937 1759.25 286.291H1755.01C1754.64 283.742 1753.84 281.896 1752.61 280.754C1751.39 279.611 1749.69 279.04 1747.49 279.04C1744.8 279.04 1742.68 280.036 1741.14 282.028C1739.62 284.021 1738.86 286.855 1738.86 290.532V293.63C1738.86 297.102 1739.58 299.863 1741.03 301.914C1742.48 303.964 1744.51 304.99 1747.12 304.99C1749.46 304.99 1751.26 304.462 1752.5 303.408C1753.76 302.338 1754.6 300.485 1755.01 297.849H1759.25ZM1768.45 287.104C1770.25 284.892 1772.6 283.786 1775.48 283.786C1780.51 283.786 1783.04 286.621 1783.09 292.29V308H1779.02V292.268C1779.01 290.554 1778.61 289.287 1777.83 288.466C1777.07 287.646 1775.88 287.236 1774.25 287.236C1772.94 287.236 1771.78 287.587 1770.78 288.291C1769.79 288.994 1769.01 289.917 1768.45 291.059V308H1764.39V274.25H1768.45V287.104ZM1803.85 308C1803.62 307.531 1803.43 306.696 1803.28 305.495C1801.39 307.458 1799.13 308.439 1796.51 308.439C1794.17 308.439 1792.24 307.78 1790.73 306.462C1789.24 305.129 1788.49 303.444 1788.49 301.408C1788.49 298.933 1789.43 297.014 1791.3 295.651C1793.19 294.274 1795.85 293.586 1799.26 293.586H1803.21V291.718C1803.21 290.297 1802.79 289.169 1801.94 288.334C1801.09 287.485 1799.84 287.06 1798.18 287.06C1796.73 287.06 1795.52 287.426 1794.53 288.159C1793.55 288.891 1793.06 289.777 1793.06 290.817H1788.98C1788.98 289.631 1789.39 288.488 1790.23 287.39C1791.08 286.276 1792.22 285.397 1793.66 284.753C1795.11 284.108 1796.69 283.786 1798.42 283.786C1801.16 283.786 1803.31 284.475 1804.86 285.852C1806.41 287.214 1807.22 289.096 1807.28 291.499V302.441C1807.28 304.624 1807.56 306.359 1808.11 307.648V308H1803.85ZM1797.1 304.902C1798.38 304.902 1799.59 304.572 1800.73 303.913C1801.87 303.254 1802.7 302.397 1803.21 301.342V296.464H1800.03C1795.05 296.464 1792.56 297.922 1792.56 300.837C1792.56 302.111 1792.98 303.107 1793.83 303.825C1794.68 304.543 1795.77 304.902 1797.1 304.902ZM1819.17 278.469V284.226H1823.6V287.368H1819.17V302.111C1819.17 303.063 1819.36 303.781 1819.76 304.265C1820.15 304.733 1820.83 304.968 1821.78 304.968C1822.25 304.968 1822.89 304.88 1823.71 304.704V308C1822.64 308.293 1821.6 308.439 1820.59 308.439C1818.78 308.439 1817.41 307.89 1816.48 306.792C1815.56 305.693 1815.1 304.133 1815.1 302.111V287.368H1810.77V284.226H1815.1V278.469H1819.17ZM1864.78 293.037C1864.78 296.171 1864.25 298.911 1863.2 301.254C1862.14 303.583 1860.65 305.363 1858.72 306.594C1856.78 307.824 1854.53 308.439 1851.95 308.439C1849.43 308.439 1847.2 307.824 1845.25 306.594C1843.3 305.349 1841.78 303.583 1840.7 301.298C1839.63 298.999 1839.08 296.34 1839.05 293.322V291.015C1839.05 287.939 1839.59 285.222 1840.65 282.863C1841.72 280.505 1843.23 278.703 1845.18 277.458C1847.14 276.198 1849.39 275.568 1851.9 275.568C1854.47 275.568 1856.72 276.191 1858.67 277.436C1860.64 278.667 1862.14 280.461 1863.2 282.819C1864.25 285.163 1864.78 287.895 1864.78 291.015V293.037ZM1860.58 290.971C1860.58 287.177 1859.82 284.27 1858.3 282.248C1856.78 280.212 1854.64 279.194 1851.9 279.194C1849.24 279.194 1847.14 280.212 1845.6 282.248C1844.08 284.27 1843.29 287.082 1843.25 290.686V293.037C1843.25 296.713 1844.02 299.606 1845.55 301.716C1847.11 303.811 1849.24 304.858 1851.95 304.858C1854.67 304.858 1856.78 303.869 1858.28 301.892C1859.77 299.899 1860.54 297.05 1860.58 293.344V290.971ZM1874.32 284.226L1874.45 287.214C1876.27 284.929 1878.64 283.786 1881.57 283.786C1886.59 283.786 1889.13 286.621 1889.17 292.29V308H1885.11V292.268C1885.09 290.554 1884.7 289.287 1883.92 288.466C1883.16 287.646 1881.96 287.236 1880.34 287.236C1879.02 287.236 1877.86 287.587 1876.87 288.291C1875.87 288.994 1875.09 289.917 1874.54 291.059V308H1870.47V284.226H1874.32ZM1899.72 308H1895.65V274.25H1899.72V308ZM1910.66 308H1906.59V284.226H1910.66V308ZM1906.27 277.919C1906.27 277.26 1906.46 276.704 1906.86 276.25C1907.27 275.795 1907.87 275.568 1908.66 275.568C1909.45 275.568 1910.05 275.795 1910.46 276.25C1910.87 276.704 1911.08 277.26 1911.08 277.919C1911.08 278.579 1910.87 279.128 1910.46 279.567C1910.05 280.007 1909.45 280.227 1908.66 280.227C1907.87 280.227 1907.27 280.007 1906.86 279.567C1906.46 279.128 1906.27 278.579 1906.27 277.919ZM1921.03 284.226L1921.16 287.214C1922.98 284.929 1925.35 283.786 1928.28 283.786C1933.31 283.786 1935.84 286.621 1935.88 292.29V308H1931.82V292.268C1931.8 290.554 1931.41 289.287 1930.63 288.466C1929.87 287.646 1928.68 287.236 1927.05 287.236C1925.73 287.236 1924.58 287.587 1923.58 288.291C1922.58 288.994 1921.81 289.917 1921.25 291.059V308H1917.19V284.226H1921.03ZM1951.88 308.439C1948.66 308.439 1946.04 307.385 1944.01 305.275C1941.99 303.151 1940.98 300.317 1940.98 296.772V296.025C1940.98 293.667 1941.43 291.564 1942.32 289.719C1943.23 287.858 1944.49 286.408 1946.1 285.368C1947.73 284.313 1949.49 283.786 1951.38 283.786C1954.47 283.786 1956.87 284.804 1958.58 286.84C1960.3 288.876 1961.15 291.792 1961.15 295.585V297.277H1945.05C1945.11 299.621 1945.79 301.518 1947.09 302.968C1948.41 304.404 1950.08 305.122 1952.1 305.122C1953.54 305.122 1954.75 304.829 1955.75 304.243C1956.74 303.657 1957.62 302.88 1958.36 301.914L1960.85 303.847C1958.85 306.909 1955.86 308.439 1951.88 308.439ZM1951.38 287.126C1949.73 287.126 1948.36 287.727 1947.24 288.928C1946.13 290.114 1945.44 291.784 1945.18 293.938H1957.09V293.63C1956.97 291.564 1956.41 289.968 1955.42 288.84C1954.42 287.697 1953.07 287.126 1951.38 287.126Z" fill="white"/>
<rect x="1652" y="748" width="380" height="70" fill="white"/>
<path d="M1805.2 790.458H1812.97V793.4H1801.53V775.627H1805.2V790.458ZM1828.9 784.916C1828.9 786.666 1828.59 788.2 1827.97 789.518C1827.36 790.837 1826.47 791.854 1825.31 792.57C1824.17 793.286 1822.85 793.644 1821.36 793.644C1819.88 793.644 1818.57 793.29 1817.42 792.582C1816.26 791.874 1815.36 790.865 1814.73 789.555C1814.09 788.236 1813.77 786.723 1813.77 785.014V784.135C1813.77 782.385 1814.08 780.847 1814.71 779.521C1815.34 778.186 1816.23 777.165 1817.38 776.457C1818.53 775.74 1819.85 775.382 1821.33 775.382C1822.81 775.382 1824.13 775.74 1825.28 776.457C1826.43 777.165 1827.32 778.186 1827.95 779.521C1828.58 780.847 1828.9 782.381 1828.9 784.123V784.916ZM1825.19 784.11C1825.19 782.247 1824.86 780.831 1824.19 779.862C1823.52 778.894 1822.57 778.41 1821.33 778.41C1820.1 778.41 1819.16 778.89 1818.49 779.85C1817.82 780.802 1817.48 782.202 1817.48 784.049V784.916C1817.48 786.731 1817.81 788.139 1818.48 789.14C1819.14 790.141 1820.1 790.641 1821.36 790.641C1822.59 790.641 1823.53 790.161 1824.19 789.201C1824.85 788.232 1825.18 786.824 1825.19 784.977V784.11ZM1845.63 791.154C1844.97 791.943 1844.03 792.558 1842.83 792.997C1841.63 793.428 1840.29 793.644 1838.83 793.644C1837.29 793.644 1835.94 793.31 1834.77 792.643C1833.62 791.968 1832.72 790.991 1832.09 789.713C1831.46 788.436 1831.14 786.934 1831.12 785.209V784.001C1831.12 782.226 1831.42 780.692 1832.01 779.399C1832.62 778.096 1833.48 777.104 1834.6 776.42C1835.73 775.728 1837.06 775.382 1838.57 775.382C1840.68 775.382 1842.33 775.887 1843.51 776.896C1844.7 777.897 1845.41 779.358 1845.63 781.278H1842.06C1841.9 780.261 1841.54 779.517 1840.97 779.045C1840.42 778.573 1839.66 778.337 1838.68 778.337C1837.43 778.337 1836.49 778.804 1835.84 779.74C1835.18 780.676 1834.85 782.068 1834.85 783.915V785.05C1834.85 786.914 1835.2 788.322 1835.91 789.274C1836.62 790.226 1837.65 790.702 1839.02 790.702C1840.4 790.702 1841.38 790.409 1841.96 789.823V786.759H1838.63V784.062H1845.63V791.154ZM1852.5 793.4H1848.84V775.627H1852.5V793.4ZM1870.36 793.4H1866.69L1859.57 781.706V793.4H1855.9V775.627H1859.57L1866.71 787.345V775.627H1870.36V793.4Z" fill="#006EFF"/>
<rect x="1655" y="444" width="380" height="50" fill="white"/>
<path d="M1667.11 408.785H1659.41V415.083H1668.35V417H1657.06V399.227H1668.23V401.155H1659.41V406.868H1667.11V408.785ZM1673.04 403.792L1673.1 405.257C1674.07 404.118 1675.38 403.548 1677.02 403.548C1678.87 403.548 1680.13 404.256 1680.79 405.672C1681.23 405.037 1681.8 404.524 1682.5 404.134C1683.21 403.743 1684.04 403.548 1685 403.548C1687.9 403.548 1689.38 405.082 1689.42 408.15V417H1687.17V408.284C1687.17 407.34 1686.95 406.636 1686.52 406.172C1686.09 405.7 1685.36 405.464 1684.35 405.464C1683.51 405.464 1682.81 405.717 1682.26 406.221C1681.7 406.718 1681.38 407.389 1681.29 408.235V417H1679.02V408.345C1679.02 406.425 1678.08 405.464 1676.2 405.464C1674.72 405.464 1673.71 406.095 1673.16 407.356V417H1670.91V403.792H1673.04ZM1701 417C1700.87 416.74 1700.76 416.276 1700.68 415.608C1699.63 416.699 1698.38 417.244 1696.92 417.244C1695.62 417.244 1694.55 416.878 1693.71 416.146C1692.88 415.405 1692.46 414.469 1692.46 413.338C1692.46 411.963 1692.98 410.896 1694.03 410.14C1695.08 409.375 1696.55 408.992 1698.44 408.992H1700.64V407.955C1700.64 407.165 1700.41 406.539 1699.93 406.075C1699.46 405.603 1698.77 405.367 1697.85 405.367C1697.04 405.367 1696.37 405.57 1695.82 405.977C1695.28 406.384 1695 406.876 1695 407.454H1692.73C1692.73 406.795 1692.96 406.16 1693.43 405.55C1693.9 404.931 1694.53 404.443 1695.33 404.085C1696.14 403.727 1697.02 403.548 1697.98 403.548C1699.5 403.548 1700.69 403.93 1701.56 404.695C1702.42 405.452 1702.87 406.498 1702.9 407.833V413.912C1702.9 415.124 1703.06 416.089 1703.36 416.805V417H1701ZM1697.25 415.279C1697.96 415.279 1698.63 415.096 1699.26 414.729C1699.9 414.363 1700.36 413.887 1700.64 413.301V410.591H1698.87C1696.11 410.591 1694.72 411.401 1694.72 413.021C1694.72 413.729 1694.96 414.282 1695.43 414.681C1695.9 415.079 1696.51 415.279 1697.25 415.279ZM1708.89 417H1706.64V403.792H1708.89V417ZM1706.45 400.289C1706.45 399.922 1706.56 399.613 1706.78 399.361C1707.01 399.109 1707.34 398.982 1707.78 398.982C1708.22 398.982 1708.56 399.109 1708.78 399.361C1709.01 399.613 1709.13 399.922 1709.13 400.289C1709.13 400.655 1709.01 400.96 1708.78 401.204C1708.56 401.448 1708.22 401.57 1707.78 401.57C1707.34 401.57 1707.01 401.448 1706.78 401.204C1706.56 400.96 1706.45 400.655 1706.45 400.289ZM1714.97 417H1712.71V398.25H1714.97V417Z" fill="white"/>
<rect x="1658" y="590" width="380" height="50" fill="white"/>
<path d="M1666.3 555.078C1664.29 554.5 1662.82 553.792 1661.91 552.954C1660.99 552.107 1660.54 551.066 1660.54 549.829C1660.54 548.429 1661.1 547.273 1662.21 546.362C1663.33 545.442 1664.79 544.982 1666.58 544.982C1667.8 544.982 1668.89 545.218 1669.84 545.69C1670.8 546.162 1671.54 546.813 1672.06 547.644C1672.59 548.474 1672.85 549.381 1672.85 550.366H1670.5C1670.5 549.292 1670.16 548.449 1669.47 547.839C1668.79 547.22 1667.83 546.911 1666.58 546.911C1665.42 546.911 1664.52 547.167 1663.87 547.68C1663.23 548.185 1662.91 548.889 1662.91 549.792C1662.91 550.516 1663.21 551.131 1663.82 551.635C1664.44 552.132 1665.49 552.587 1666.96 553.002C1668.44 553.417 1669.6 553.877 1670.43 554.382C1671.26 554.878 1671.88 555.46 1672.28 556.127C1672.69 556.795 1672.89 557.58 1672.89 558.483C1672.89 559.924 1672.33 561.079 1671.21 561.95C1670.08 562.813 1668.58 563.244 1666.7 563.244C1665.48 563.244 1664.34 563.012 1663.28 562.548C1662.23 562.076 1661.41 561.433 1660.83 560.62C1660.26 559.806 1659.98 558.882 1659.98 557.849H1662.33C1662.33 558.923 1662.73 559.773 1663.52 560.4C1664.31 561.018 1665.38 561.328 1666.7 561.328C1667.94 561.328 1668.89 561.075 1669.55 560.571C1670.21 560.066 1670.54 559.379 1670.54 558.508C1670.54 557.637 1670.23 556.966 1669.62 556.494C1669.01 556.014 1667.9 555.542 1666.3 555.078ZM1681.03 563.244C1679.24 563.244 1677.79 562.658 1676.66 561.486C1675.54 560.306 1674.98 558.732 1674.98 556.762V556.347C1674.98 555.037 1675.23 553.869 1675.72 552.844C1676.23 551.81 1676.93 551.005 1677.82 550.427C1678.73 549.841 1679.7 549.548 1680.75 549.548C1682.47 549.548 1683.8 550.113 1684.76 551.245C1685.71 552.376 1686.19 553.995 1686.19 556.103V557.043H1677.24C1677.27 558.345 1677.65 559.399 1678.37 560.205C1679.1 561.002 1680.03 561.401 1681.16 561.401C1681.95 561.401 1682.63 561.238 1683.18 560.913C1683.74 560.587 1684.22 560.156 1684.63 559.619L1686.01 560.693C1684.91 562.394 1683.25 563.244 1681.03 563.244ZM1680.75 551.403C1679.84 551.403 1679.08 551.737 1678.46 552.404C1677.84 553.063 1677.46 553.991 1677.31 555.188H1683.93V555.017C1683.86 553.869 1683.55 552.982 1683 552.355C1682.45 551.721 1681.7 551.403 1680.75 551.403ZM1690.95 549.792L1691.02 551.452C1692.03 550.183 1693.35 549.548 1694.97 549.548C1697.77 549.548 1699.17 551.123 1699.2 554.272V563H1696.94V554.26C1696.93 553.308 1696.71 552.604 1696.28 552.148C1695.86 551.692 1695.19 551.464 1694.29 551.464C1693.56 551.464 1692.92 551.66 1692.36 552.05C1691.81 552.441 1691.38 552.954 1691.07 553.588V563H1688.81V549.792H1690.95ZM1704.86 551.391C1705.86 550.162 1707.16 549.548 1708.77 549.548C1711.56 549.548 1712.97 551.123 1712.99 554.272V563H1710.73V554.26C1710.73 553.308 1710.51 552.604 1710.07 552.148C1709.65 551.692 1708.99 551.464 1708.08 551.464C1707.35 551.464 1706.71 551.66 1706.16 552.05C1705.6 552.441 1705.17 552.954 1704.86 553.588V563H1702.6V544.25H1704.86V551.391ZM1724.53 563C1724.4 562.74 1724.29 562.276 1724.21 561.608C1723.16 562.699 1721.91 563.244 1720.45 563.244C1719.15 563.244 1718.08 562.878 1717.24 562.146C1716.41 561.405 1715.99 560.469 1715.99 559.338C1715.99 557.963 1716.52 556.896 1717.56 556.14C1718.61 555.375 1720.08 554.992 1721.98 554.992H1724.17V553.955C1724.17 553.165 1723.94 552.539 1723.47 552.075C1722.99 551.603 1722.3 551.367 1721.38 551.367C1720.57 551.367 1719.9 551.57 1719.35 551.977C1718.81 552.384 1718.53 552.876 1718.53 553.454H1716.26C1716.26 552.795 1716.5 552.16 1716.96 551.55C1717.43 550.931 1718.07 550.443 1718.86 550.085C1719.67 549.727 1720.55 549.548 1721.51 549.548C1723.03 549.548 1724.23 549.93 1725.09 550.695C1725.95 551.452 1726.4 552.498 1726.43 553.833V559.912C1726.43 561.124 1726.59 562.089 1726.9 562.805V563H1724.53ZM1720.78 561.279C1721.49 561.279 1722.16 561.096 1722.79 560.729C1723.43 560.363 1723.89 559.887 1724.17 559.301V556.591H1722.4C1719.64 556.591 1718.25 557.401 1718.25 559.021C1718.25 559.729 1718.49 560.282 1718.96 560.681C1719.43 561.079 1720.04 561.279 1720.78 561.279Z" fill="white"/>
<path d="M1905.29 685.371C1905.15 686.888 1904.59 688.073 1903.62 688.926C1902.64 689.772 1901.34 690.195 1899.72 690.195C1898.59 690.195 1897.59 689.928 1896.72 689.395C1895.86 688.854 1895.2 688.089 1894.73 687.1C1894.26 686.11 1894.02 684.961 1894 683.652V682.324C1894 680.983 1894.23 679.801 1894.71 678.779C1895.18 677.757 1895.86 676.969 1896.75 676.416C1897.64 675.863 1898.67 675.586 1899.84 675.586C1901.4 675.586 1902.67 676.012 1903.62 676.865C1904.58 677.718 1905.14 678.923 1905.29 680.479H1902.83C1902.72 679.456 1902.42 678.721 1901.94 678.271C1901.46 677.816 1900.76 677.588 1899.84 677.588C1898.76 677.588 1897.93 677.982 1897.36 678.77C1896.78 679.551 1896.49 680.7 1896.48 682.217V683.477C1896.48 685.013 1896.75 686.185 1897.3 686.992C1897.85 687.799 1898.66 688.203 1899.72 688.203C1900.69 688.203 1901.42 687.985 1901.91 687.549C1902.39 687.113 1902.7 686.387 1902.83 685.371H1905.29ZM1912.81 681.602C1912.5 681.549 1912.18 681.523 1911.85 681.523C1910.76 681.523 1910.03 681.94 1909.65 682.773V690H1907.28V679.434H1909.54L1909.6 680.615C1910.17 679.697 1910.97 679.238 1911.98 679.238C1912.32 679.238 1912.6 679.284 1912.82 679.375L1912.81 681.602ZM1918.77 690.195C1917.27 690.195 1916.05 689.723 1915.11 688.779C1914.18 687.829 1913.71 686.566 1913.71 684.99V684.697C1913.71 683.643 1913.91 682.702 1914.32 681.875C1914.73 681.042 1915.3 680.394 1916.04 679.932C1916.77 679.469 1917.59 679.238 1918.5 679.238C1919.94 679.238 1921.05 679.697 1921.83 680.615C1922.62 681.533 1923.01 682.832 1923.01 684.512V685.469H1916.11C1916.18 686.341 1916.47 687.031 1916.97 687.539C1917.49 688.047 1918.13 688.301 1918.91 688.301C1920 688.301 1920.88 687.861 1921.56 686.982L1922.84 688.203C1922.42 688.835 1921.85 689.326 1921.14 689.678C1920.44 690.023 1919.65 690.195 1918.77 690.195ZM1918.49 681.143C1917.84 681.143 1917.31 681.37 1916.91 681.826C1916.51 682.282 1916.26 682.917 1916.14 683.73H1920.67V683.555C1920.61 682.76 1920.4 682.161 1920.03 681.758C1919.66 681.348 1919.15 681.143 1918.49 681.143ZM1931.17 690C1931.07 689.798 1930.98 689.469 1930.9 689.014C1930.15 689.801 1929.22 690.195 1928.13 690.195C1927.07 690.195 1926.2 689.893 1925.53 689.287C1924.86 688.682 1924.52 687.933 1924.52 687.041C1924.52 685.915 1924.94 685.052 1925.77 684.453C1926.61 683.848 1927.81 683.545 1929.37 683.545H1930.82V682.852C1930.82 682.305 1930.67 681.868 1930.36 681.543C1930.06 681.211 1929.59 681.045 1928.97 681.045C1928.43 681.045 1927.98 681.182 1927.64 681.455C1927.29 681.722 1927.12 682.064 1927.12 682.48H1924.75C1924.75 681.901 1924.94 681.361 1925.32 680.859C1925.71 680.352 1926.23 679.954 1926.89 679.668C1927.55 679.382 1928.29 679.238 1929.1 679.238C1930.34 679.238 1931.33 679.551 1932.06 680.176C1932.8 680.794 1933.18 681.667 1933.2 682.793V687.559C1933.2 688.509 1933.33 689.268 1933.6 689.834V690H1931.17ZM1928.57 688.291C1929.04 688.291 1929.47 688.177 1929.88 687.949C1930.3 687.721 1930.61 687.415 1930.82 687.031V685.039H1929.54C1928.66 685.039 1928 685.192 1927.56 685.498C1927.12 685.804 1926.9 686.237 1926.9 686.797C1926.9 687.253 1927.05 687.617 1927.35 687.891C1927.65 688.158 1928.06 688.291 1928.57 688.291ZM1938.65 676.865V679.434H1940.52V681.191H1938.65V687.09C1938.65 687.493 1938.73 687.786 1938.89 687.969C1939.05 688.145 1939.34 688.232 1939.75 688.232C1940.02 688.232 1940.3 688.2 1940.58 688.135V689.971C1940.04 690.12 1939.52 690.195 1939.02 690.195C1937.19 690.195 1936.28 689.189 1936.28 687.178V681.191H1934.54V679.434H1936.28V676.865H1938.65ZM1946.99 690.195C1945.49 690.195 1944.27 689.723 1943.33 688.779C1942.4 687.829 1941.94 686.566 1941.94 684.99V684.697C1941.94 683.643 1942.14 682.702 1942.54 681.875C1942.95 681.042 1943.52 680.394 1944.26 679.932C1945 679.469 1945.82 679.238 1946.72 679.238C1948.16 679.238 1949.27 679.697 1950.05 680.615C1950.84 681.533 1951.23 682.832 1951.23 684.512V685.469H1944.33C1944.4 686.341 1944.69 687.031 1945.2 687.539C1945.71 688.047 1946.36 688.301 1947.13 688.301C1948.22 688.301 1949.1 687.861 1949.79 686.982L1951.07 688.203C1950.64 688.835 1950.08 689.326 1949.37 689.678C1948.66 690.023 1947.87 690.195 1946.99 690.195ZM1946.71 681.143C1946.06 681.143 1945.53 681.37 1945.13 681.826C1944.73 682.282 1944.48 682.917 1944.37 683.73H1948.89V683.555C1948.84 682.76 1948.62 682.161 1948.25 681.758C1947.88 681.348 1947.37 681.143 1946.71 681.143ZM1966.25 686.689H1960.74L1959.59 690H1957.02L1962.39 675.781H1964.61L1969.99 690H1967.41L1966.25 686.689ZM1961.44 684.697H1965.56L1963.5 678.799L1961.44 684.697ZM1975.72 688.301C1976.32 688.301 1976.81 688.128 1977.2 687.783C1977.59 687.438 1977.8 687.012 1977.82 686.504H1980.06C1980.03 687.161 1979.83 687.777 1979.45 688.35C1979.06 688.916 1978.54 689.365 1977.88 689.697C1977.23 690.029 1976.52 690.195 1975.75 690.195C1974.28 690.195 1973.1 689.717 1972.24 688.76C1971.37 687.803 1970.94 686.481 1970.94 684.795V684.551C1970.94 682.943 1971.37 681.657 1972.23 680.693C1973.09 679.723 1974.26 679.238 1975.74 679.238C1977 679.238 1978.02 679.606 1978.81 680.342C1979.6 681.071 1980.02 682.031 1980.06 683.223H1977.82C1977.8 682.617 1977.59 682.119 1977.2 681.729C1976.82 681.338 1976.32 681.143 1975.72 681.143C1974.96 681.143 1974.36 681.423 1973.95 681.982C1973.53 682.536 1973.32 683.379 1973.31 684.512V684.893C1973.31 686.038 1973.52 686.895 1973.93 687.461C1974.34 688.021 1974.94 688.301 1975.72 688.301ZM1986.19 688.301C1986.79 688.301 1987.28 688.128 1987.67 687.783C1988.06 687.438 1988.27 687.012 1988.29 686.504H1990.53C1990.5 687.161 1990.3 687.777 1989.91 688.35C1989.53 688.916 1989.01 689.365 1988.35 689.697C1987.69 690.029 1986.98 690.195 1986.22 690.195C1984.74 690.195 1983.57 689.717 1982.71 688.76C1981.84 687.803 1981.41 686.481 1981.41 684.795V684.551C1981.41 682.943 1981.84 681.657 1982.7 680.693C1983.56 679.723 1984.73 679.238 1986.21 679.238C1987.47 679.238 1988.49 679.606 1989.28 680.342C1990.07 681.071 1990.49 682.031 1990.53 683.223H1988.29C1988.27 682.617 1988.06 682.119 1987.67 681.729C1987.28 681.338 1986.79 681.143 1986.19 681.143C1985.43 681.143 1984.83 681.423 1984.42 681.982C1984 682.536 1983.79 683.379 1983.78 684.512V684.893C1983.78 686.038 1983.99 686.895 1984.4 687.461C1984.81 688.021 1985.41 688.301 1986.19 688.301ZM1991.88 684.619C1991.88 683.584 1992.08 682.653 1992.49 681.826C1992.9 680.993 1993.48 680.355 1994.22 679.912C1994.96 679.463 1995.82 679.238 1996.78 679.238C1998.21 679.238 1999.36 679.697 2000.25 680.615C2001.14 681.533 2001.62 682.751 2001.69 684.268L2001.7 684.824C2001.7 685.866 2001.5 686.797 2001.1 687.617C2000.7 688.438 2000.13 689.072 1999.38 689.521C1998.63 689.971 1997.78 690.195 1996.8 690.195C1995.31 690.195 1994.11 689.701 1993.21 688.711C1992.32 687.715 1991.88 686.39 1991.88 684.736V684.619ZM1994.25 684.824C1994.25 685.911 1994.47 686.764 1994.92 687.383C1995.37 687.995 1996 688.301 1996.8 688.301C1997.6 688.301 1998.22 687.988 1998.66 687.363C1999.11 686.738 1999.34 685.824 1999.34 684.619C1999.34 683.551 1999.11 682.705 1998.64 682.08C1998.19 681.455 1997.57 681.143 1996.78 681.143C1996 681.143 1995.39 681.452 1994.93 682.07C1994.48 682.682 1994.25 683.6 1994.25 684.824ZM2010.11 688.965C2009.41 689.785 2008.42 690.195 2007.14 690.195C2005.99 690.195 2005.13 689.86 2004.53 689.189C2003.95 688.519 2003.65 687.549 2003.65 686.279V679.434H2006.03V686.25C2006.03 687.591 2006.58 688.262 2007.7 688.262C2008.85 688.262 2009.63 687.848 2010.03 687.021V679.434H2012.4V690H2010.17L2010.11 688.965ZM2017.02 679.434L2017.09 680.654C2017.87 679.71 2018.9 679.238 2020.17 679.238C2022.37 679.238 2023.49 680.498 2023.53 683.018V690H2021.15V683.154C2021.15 682.484 2021.01 681.989 2020.71 681.67C2020.43 681.344 2019.96 681.182 2019.3 681.182C2018.34 681.182 2017.63 681.615 2017.16 682.48V690H2014.79V679.434H2017.02ZM2028.93 676.865V679.434H2030.79V681.191H2028.93V687.09C2028.93 687.493 2029.01 687.786 2029.16 687.969C2029.32 688.145 2029.61 688.232 2030.02 688.232C2030.29 688.232 2030.57 688.2 2030.85 688.135V689.971C2030.31 690.12 2029.79 690.195 2029.29 690.195C2027.47 690.195 2026.55 689.189 2026.55 687.178V681.191H2024.82V679.434H2026.55V676.865H2028.93Z" fill="white" fill-opacity="0.8"/>
<path d="M1718.42 66.0397H1969.59V100.202C1969.59 108.486 1962.87 115.202 1954.59 115.202H1733.42C1725.14 115.202 1718.42 108.486 1718.42 100.202V66.0397Z" fill="black"/>
<defs>
<filter id="filter0_d" x="207" y="100" width="1025" height="824" filterUnits="userSpaceOnUse" color-interpolation-filters="sRGB">
<feFlood flood-opacity="0" result="BackgroundImageFix"/>
<feColorMatrix in="SourceAlpha" type="matrix" values="0 0 0 0 0 0 0 0 0 0 0 0 0 0 0 0 0 0 127 0"/>
<feOffset/>
<feColorMatrix type="matrix" values="0 0 0 0 0 0 0 0 0 0 0 0 0 0 0 0 0 0 1 0"/>
<feBlend mode="normal" in2="BackgroundImageFix" result="effect1_dropShadow"/>
<feBlend mode="normal" in="SourceGraphic" in2="effect1_dropShadow" result="shape"/>
</filter>
</defs>
</svg>
