<svg width="432" height="915" viewBox="0 0 432 915" fill="none" xmlns="http://www.w3.org/2000/svg">
<rect x="4" y="4" width="424" height="907" rx="31" stroke="#141311" stroke-opacity="0.8" stroke-width="8"/>
<rect x="10.5374" y="10.5264" width="410.935" height="893.96" rx="22.5" fill="white" stroke="black" stroke-width="5"/>
<rect x="13" y="12" width="406" height="890" rx="20" fill="#006EFF"/>
<path d="M131.246 243.849C130.851 247.232 129.598 249.847 127.489 251.693C125.394 253.524 122.604 254.439 119.117 254.439C115.338 254.439 112.306 253.084 110.021 250.375C107.75 247.665 106.615 244.039 106.615 239.498V236.422C106.615 233.448 107.142 230.833 108.197 228.578C109.266 226.322 110.775 224.593 112.723 223.392C114.671 222.176 116.927 221.568 119.491 221.568C122.889 221.568 125.614 222.521 127.665 224.425C129.715 226.314 130.909 228.937 131.246 232.291H127.005C126.639 229.742 125.841 227.896 124.61 226.754C123.395 225.611 121.688 225.04 119.491 225.04C116.795 225.04 114.679 226.036 113.141 228.028C111.617 230.021 110.855 232.855 110.855 236.532V239.63C110.855 243.102 111.581 245.863 113.031 247.914C114.481 249.964 116.51 250.99 119.117 250.99C121.461 250.99 123.255 250.462 124.5 249.408C125.76 248.338 126.595 246.485 127.005 243.849H131.246ZM140.453 233.104C142.254 230.892 144.598 229.786 147.484 229.786C152.508 229.786 155.042 232.621 155.086 238.29V254H151.021V238.268C151.007 236.554 150.611 235.287 149.835 234.466C149.073 233.646 147.879 233.236 146.253 233.236C144.935 233.236 143.778 233.587 142.782 234.291C141.786 234.994 141.009 235.917 140.453 237.059V254H136.388V220.25H140.453V233.104ZM175.851 254C175.616 253.531 175.426 252.696 175.279 251.495C173.39 253.458 171.134 254.439 168.512 254.439C166.168 254.439 164.242 253.78 162.733 252.462C161.239 251.129 160.492 249.444 160.492 247.408C160.492 244.933 161.429 243.014 163.304 241.651C165.194 240.274 167.845 239.586 171.258 239.586H175.213V237.718C175.213 236.297 174.789 235.169 173.939 234.334C173.089 233.485 171.837 233.06 170.182 233.06C168.731 233.06 167.516 233.426 166.534 234.159C165.553 234.891 165.062 235.777 165.062 236.817H160.975C160.975 235.631 161.393 234.488 162.228 233.39C163.077 232.276 164.22 231.397 165.655 230.753C167.105 230.108 168.695 229.786 170.423 229.786C173.163 229.786 175.309 230.475 176.861 231.852C178.414 233.214 179.22 235.096 179.278 237.499V248.441C179.278 250.624 179.557 252.359 180.113 253.648V254H175.851ZM169.105 250.902C170.379 250.902 171.588 250.572 172.73 249.913C173.873 249.254 174.701 248.397 175.213 247.342V242.464H172.027C167.047 242.464 164.557 243.922 164.557 246.837C164.557 248.111 164.981 249.107 165.831 249.825C166.681 250.543 167.772 250.902 169.105 250.902ZM191.166 224.469V230.226H195.604V233.368H191.166V248.111C191.166 249.063 191.363 249.781 191.759 250.265C192.154 250.733 192.828 250.968 193.78 250.968C194.249 250.968 194.894 250.88 195.714 250.704V254C194.645 254.293 193.604 254.439 192.594 254.439C190.777 254.439 189.408 253.89 188.485 252.792C187.562 251.693 187.101 250.133 187.101 248.111V233.368H182.772V230.226H187.101V224.469H191.166ZM236.781 239.037C236.781 242.171 236.253 244.911 235.199 247.254C234.144 249.583 232.65 251.363 230.716 252.594C228.783 253.824 226.527 254.439 223.949 254.439C221.429 254.439 219.195 253.824 217.247 252.594C215.299 251.349 213.783 249.583 212.699 247.298C211.629 244.999 211.08 242.34 211.051 239.322V237.015C211.051 233.939 211.585 231.222 212.655 228.863C213.724 226.505 215.233 224.703 217.181 223.458C219.144 222.198 221.385 221.568 223.905 221.568C226.468 221.568 228.724 222.191 230.672 223.436C232.635 224.667 234.144 226.461 235.199 228.819C236.253 231.163 236.781 233.895 236.781 237.015V239.037ZM232.584 236.971C232.584 233.177 231.822 230.27 230.299 228.248C228.775 226.212 226.644 225.194 223.905 225.194C221.239 225.194 219.137 226.212 217.599 228.248C216.075 230.27 215.292 233.082 215.248 236.686V239.037C215.248 242.713 216.017 245.606 217.555 247.716C219.107 249.811 221.239 250.858 223.949 250.858C226.673 250.858 228.783 249.869 230.277 247.892C231.771 245.899 232.54 243.05 232.584 239.344V236.971ZM246.317 230.226L246.449 233.214C248.265 230.929 250.638 229.786 253.568 229.786C258.592 229.786 261.126 232.621 261.17 238.29V254H257.105V238.268C257.091 236.554 256.695 235.287 255.919 234.466C255.157 233.646 253.963 233.236 252.337 233.236C251.019 233.236 249.862 233.587 248.866 234.291C247.87 234.994 247.093 235.917 246.537 237.059V254H242.472V230.226H246.317ZM271.717 254H267.652V220.25H271.717V254ZM282.66 254H278.595V230.226H282.66V254ZM278.265 223.919C278.265 223.26 278.463 222.704 278.858 222.25C279.269 221.795 279.869 221.568 280.66 221.568C281.451 221.568 282.052 221.795 282.462 222.25C282.872 222.704 283.077 223.26 283.077 223.919C283.077 224.579 282.872 225.128 282.462 225.567C282.052 226.007 281.451 226.227 280.66 226.227C279.869 226.227 279.269 226.007 278.858 225.567C278.463 225.128 278.265 224.579 278.265 223.919ZM293.031 230.226L293.163 233.214C294.979 230.929 297.352 229.786 300.282 229.786C305.306 229.786 307.84 232.621 307.884 238.29V254H303.819V238.268C303.805 236.554 303.409 235.287 302.633 234.466C301.871 233.646 300.677 233.236 299.051 233.236C297.733 233.236 296.576 233.587 295.58 234.291C294.583 234.994 293.807 235.917 293.25 237.059V254H289.186V230.226H293.031ZM323.88 254.439C320.658 254.439 318.036 253.385 316.014 251.275C313.993 249.151 312.982 246.317 312.982 242.772V242.025C312.982 239.667 313.429 237.564 314.322 235.719C315.23 233.858 316.49 232.408 318.102 231.368C319.728 230.313 321.485 229.786 323.375 229.786C326.466 229.786 328.868 230.804 330.582 232.84C332.296 234.876 333.153 237.792 333.153 241.585V243.277H317.047C317.105 245.621 317.787 247.518 319.09 248.968C320.409 250.404 322.079 251.122 324.1 251.122C325.536 251.122 326.751 250.829 327.748 250.243C328.744 249.657 329.615 248.88 330.362 247.914L332.845 249.847C330.853 252.909 327.865 254.439 323.88 254.439ZM323.375 233.126C321.734 233.126 320.357 233.727 319.244 234.928C318.131 236.114 317.442 237.784 317.179 239.938H329.088V239.63C328.971 237.564 328.414 235.968 327.418 234.84C326.422 233.697 325.074 233.126 323.375 233.126Z" fill="white"/>
<rect x="24" y="694" width="380" height="70" fill="white"/>
<path d="M177.196 736.458H184.972V739.4H173.534V721.627H177.196V736.458ZM200.902 730.916C200.902 732.666 200.593 734.2 199.974 735.518C199.356 736.837 198.469 737.854 197.313 738.57C196.166 739.286 194.847 739.644 193.358 739.644C191.885 739.644 190.571 739.29 189.415 738.582C188.26 737.874 187.364 736.865 186.73 735.555C186.095 734.236 185.773 732.723 185.765 731.014V730.135C185.765 728.385 186.079 726.847 186.705 725.521C187.34 724.186 188.231 723.165 189.378 722.457C190.534 721.74 191.852 721.382 193.334 721.382C194.815 721.382 196.129 721.74 197.276 722.457C198.432 723.165 199.323 724.186 199.95 725.521C200.585 726.847 200.902 728.381 200.902 730.123V730.916ZM197.191 730.11C197.191 728.247 196.857 726.831 196.19 725.862C195.523 724.894 194.571 724.41 193.334 724.41C192.105 724.41 191.157 724.89 190.489 725.85C189.822 726.802 189.484 728.202 189.476 730.049V730.916C189.476 732.731 189.81 734.139 190.477 735.14C191.144 736.141 192.105 736.641 193.358 736.641C194.587 736.641 195.531 736.161 196.19 735.201C196.849 734.232 197.183 732.824 197.191 730.977V730.11ZM217.626 737.154C216.966 737.943 216.035 738.558 214.83 738.997C213.626 739.428 212.291 739.644 210.826 739.644C209.288 739.644 207.937 739.31 206.773 738.643C205.618 737.968 204.723 736.991 204.088 735.713C203.461 734.436 203.14 732.934 203.124 731.209V730.001C203.124 728.226 203.421 726.692 204.015 725.399C204.617 724.096 205.48 723.104 206.603 722.42C207.734 721.728 209.056 721.382 210.57 721.382C212.678 721.382 214.326 721.887 215.514 722.896C216.702 723.897 217.406 725.358 217.626 727.278H214.061C213.898 726.261 213.536 725.517 212.975 725.045C212.421 724.573 211.656 724.337 210.68 724.337C209.435 724.337 208.487 724.804 207.836 725.74C207.184 726.676 206.855 728.068 206.847 729.915V731.05C206.847 732.914 207.201 734.322 207.909 735.274C208.617 736.226 209.654 736.702 211.022 736.702C212.397 736.702 213.378 736.409 213.963 735.823V732.759H210.631V730.062H217.626V737.154ZM224.498 739.4H220.836V721.627H224.498V739.4ZM242.357 739.4H238.695L231.566 727.706V739.4H227.904V721.627H231.566L238.707 733.345V721.627H242.357V739.4Z" fill="#006EFF"/>
<rect x="27" y="390" width="380" height="50" fill="white"/>
<path d="M39.1094 354.785H31.4067V361.083H40.3545V363H29.063V345.227H40.2324V347.155H31.4067V352.868H39.1094V354.785ZM45.042 349.792L45.103 351.257C46.0715 350.118 47.3776 349.548 49.0215 349.548C50.8688 349.548 52.1261 350.256 52.7935 351.672C53.2329 351.037 53.8026 350.524 54.5024 350.134C55.2104 349.743 56.0446 349.548 57.0049 349.548C59.902 349.548 61.375 351.082 61.4238 354.15V363H59.1655V354.284C59.1655 353.34 58.9499 352.636 58.5186 352.172C58.0872 351.7 57.363 351.464 56.3457 351.464C55.5075 351.464 54.8117 351.717 54.2583 352.221C53.7049 352.718 53.3835 353.389 53.2939 354.235V363H51.0234V354.345C51.0234 352.425 50.0835 351.464 48.2036 351.464C46.7225 351.464 45.7093 352.095 45.1641 353.356V363H42.9058V349.792H45.042ZM72.9961 363C72.8659 362.74 72.7601 362.276 72.6787 361.608C71.6289 362.699 70.3757 363.244 68.9189 363.244C67.6169 363.244 66.5467 362.878 65.7085 362.146C64.8784 361.405 64.4634 360.469 64.4634 359.338C64.4634 357.963 64.9842 356.896 66.0259 356.14C67.0757 355.375 68.5487 354.992 70.4448 354.992H72.6421V353.955C72.6421 353.165 72.4061 352.539 71.9341 352.075C71.4621 351.603 70.7663 351.367 69.8467 351.367C69.041 351.367 68.3656 351.57 67.8203 351.977C67.2751 352.384 67.0024 352.876 67.0024 353.454H64.7319C64.7319 352.795 64.9639 352.16 65.4277 351.55C65.8997 350.931 66.5345 350.443 67.332 350.085C68.1377 349.727 69.0207 349.548 69.981 349.548C71.5028 349.548 72.695 349.93 73.5576 350.695C74.4202 351.452 74.8678 352.498 74.9004 353.833V359.912C74.9004 361.124 75.055 362.089 75.3643 362.805V363H72.9961ZM69.2485 361.279C69.9565 361.279 70.6279 361.096 71.2627 360.729C71.8975 360.363 72.3573 359.887 72.6421 359.301V356.591H70.8721C68.1051 356.591 66.7217 357.401 66.7217 359.021C66.7217 359.729 66.9577 360.282 67.4297 360.681C67.9017 361.079 68.508 361.279 69.2485 361.279ZM80.894 363H78.6357V349.792H80.894V363ZM78.4526 346.289C78.4526 345.922 78.5625 345.613 78.7822 345.361C79.0101 345.109 79.3438 344.982 79.7832 344.982C80.2227 344.982 80.5563 345.109 80.7842 345.361C81.012 345.613 81.126 345.922 81.126 346.289C81.126 346.655 81.012 346.96 80.7842 347.204C80.5563 347.448 80.2227 347.57 79.7832 347.57C79.3438 347.57 79.0101 347.448 78.7822 347.204C78.5625 346.96 78.4526 346.655 78.4526 346.289ZM86.9731 363H84.7148V344.25H86.9731V363Z" fill="white"/>
<rect x="30" y="536" width="380" height="50" fill="white"/>
<path d="M38.2998 501.078C36.2897 500.5 34.8249 499.792 33.9053 498.954C32.9938 498.107 32.5381 497.066 32.5381 495.829C32.5381 494.429 33.0955 493.273 34.2104 492.362C35.3335 491.442 36.7902 490.982 38.5806 490.982C39.8013 490.982 40.8877 491.218 41.8398 491.69C42.8001 492.162 43.5407 492.813 44.0615 493.644C44.5905 494.474 44.855 495.381 44.855 496.366H42.499C42.499 495.292 42.1572 494.449 41.4736 493.839C40.79 493.22 39.8257 492.911 38.5806 492.911C37.425 492.911 36.5216 493.167 35.8706 493.68C35.2277 494.185 34.9062 494.889 34.9062 495.792C34.9062 496.516 35.2114 497.131 35.8218 497.635C36.4403 498.132 37.486 498.587 38.959 499.002C40.4401 499.417 41.5957 499.877 42.4258 500.382C43.264 500.878 43.8825 501.46 44.2812 502.127C44.6882 502.795 44.8916 503.58 44.8916 504.483C44.8916 505.924 44.3301 507.079 43.207 507.95C42.084 508.813 40.5825 509.244 38.7026 509.244C37.4819 509.244 36.3426 509.012 35.2847 508.548C34.2267 508.076 33.4089 507.433 32.8311 506.62C32.2614 505.806 31.9766 504.882 31.9766 503.849H34.3325C34.3325 504.923 34.7272 505.773 35.5166 506.4C36.3141 507.018 37.3761 507.328 38.7026 507.328C39.9396 507.328 40.8877 507.075 41.5469 506.571C42.2061 506.066 42.5356 505.379 42.5356 504.508C42.5356 503.637 42.2305 502.966 41.6201 502.494C41.0098 502.014 39.903 501.542 38.2998 501.078ZM53.0337 509.244C51.2433 509.244 49.7866 508.658 48.6636 507.486C47.5405 506.306 46.979 504.732 46.979 502.762V502.347C46.979 501.037 47.2272 499.869 47.7236 498.844C48.2282 497.81 48.9281 497.005 49.8232 496.427C50.7266 495.841 51.7031 495.548 52.7529 495.548C54.4701 495.548 55.8047 496.113 56.7568 497.245C57.709 498.376 58.1851 499.995 58.1851 502.103V503.043H49.2373C49.2699 504.345 49.6483 505.399 50.3726 506.205C51.105 507.002 52.0327 507.401 53.1558 507.401C53.9533 507.401 54.6287 507.238 55.1821 506.913C55.7355 506.587 56.2197 506.156 56.6348 505.619L58.0142 506.693C56.9074 508.394 55.2472 509.244 53.0337 509.244ZM52.7529 497.403C51.8415 497.403 51.0765 497.737 50.458 498.404C49.8395 499.063 49.457 499.991 49.3105 501.188H55.9268V501.017C55.8617 499.869 55.5524 498.982 54.999 498.355C54.4456 497.721 53.6969 497.403 52.7529 497.403ZM62.9458 495.792L63.019 497.452C64.0282 496.183 65.3465 495.548 66.9741 495.548C69.7655 495.548 71.1733 497.123 71.1978 500.272V509H68.9395V500.26C68.9313 499.308 68.7116 498.604 68.2803 498.148C67.8571 497.692 67.1938 497.464 66.2905 497.464C65.5581 497.464 64.9152 497.66 64.3618 498.05C63.8084 498.441 63.3771 498.954 63.0679 499.588V509H60.8096V495.792H62.9458ZM76.8618 497.391C77.8628 496.162 79.1649 495.548 80.7681 495.548C83.5594 495.548 84.9673 497.123 84.9917 500.272V509H82.7334V500.26C82.7253 499.308 82.5055 498.604 82.0742 498.148C81.651 497.692 80.9878 497.464 80.0845 497.464C79.3521 497.464 78.7091 497.66 78.1558 498.05C77.6024 498.441 77.1711 498.954 76.8618 499.588V509H74.6035V490.25H76.8618V497.391ZM96.5273 509C96.3971 508.74 96.2913 508.276 96.21 507.608C95.1602 508.699 93.9069 509.244 92.4502 509.244C91.1481 509.244 90.078 508.878 89.2397 508.146C88.4097 507.405 87.9946 506.469 87.9946 505.338C87.9946 503.963 88.5155 502.896 89.5571 502.14C90.6069 501.375 92.0799 500.992 93.9761 500.992H96.1733V499.955C96.1733 499.165 95.9373 498.539 95.4653 498.075C94.9933 497.603 94.2975 497.367 93.3779 497.367C92.5723 497.367 91.8968 497.57 91.3516 497.977C90.8063 498.384 90.5337 498.876 90.5337 499.454H88.2632C88.2632 498.795 88.4951 498.16 88.959 497.55C89.431 496.931 90.0658 496.443 90.8633 496.085C91.6689 495.727 92.5519 495.548 93.5122 495.548C95.034 495.548 96.2262 495.93 97.0889 496.695C97.9515 497.452 98.3991 498.498 98.4316 499.833V505.912C98.4316 507.124 98.5863 508.089 98.8955 508.805V509H96.5273ZM92.7798 507.279C93.4878 507.279 94.1592 507.096 94.7939 506.729C95.4287 506.363 95.8885 505.887 96.1733 505.301V502.591H94.4033C91.6364 502.591 90.2529 503.401 90.2529 505.021C90.2529 505.729 90.4889 506.282 90.9609 506.681C91.4329 507.079 92.0392 507.279 92.7798 507.279Z" fill="white"/>
<path d="M277.295 631.371C277.152 632.888 276.592 634.073 275.615 634.926C274.639 635.772 273.34 636.195 271.719 636.195C270.586 636.195 269.587 635.928 268.721 635.395C267.861 634.854 267.197 634.089 266.729 633.1C266.26 632.11 266.016 630.961 265.996 629.652V628.324C265.996 626.983 266.234 625.801 266.709 624.779C267.184 623.757 267.865 622.969 268.75 622.416C269.642 621.863 270.671 621.586 271.836 621.586C273.405 621.586 274.668 622.012 275.625 622.865C276.582 623.718 277.139 624.923 277.295 626.479H274.834C274.717 625.456 274.417 624.721 273.936 624.271C273.46 623.816 272.76 623.588 271.836 623.588C270.762 623.588 269.935 623.982 269.355 624.77C268.783 625.551 268.49 626.7 268.477 628.217V629.477C268.477 631.013 268.75 632.185 269.297 632.992C269.85 633.799 270.658 634.203 271.719 634.203C272.689 634.203 273.418 633.985 273.906 633.549C274.395 633.113 274.704 632.387 274.834 631.371H277.295ZM284.814 627.602C284.502 627.549 284.18 627.523 283.848 627.523C282.76 627.523 282.028 627.94 281.65 628.773V636H279.277V625.434H281.543L281.602 626.615C282.174 625.697 282.969 625.238 283.984 625.238C284.323 625.238 284.603 625.284 284.824 625.375L284.814 627.602ZM290.771 636.195C289.268 636.195 288.047 635.723 287.109 634.779C286.178 633.829 285.713 632.566 285.713 630.99V630.697C285.713 629.643 285.915 628.702 286.318 627.875C286.729 627.042 287.301 626.394 288.037 625.932C288.773 625.469 289.593 625.238 290.498 625.238C291.937 625.238 293.047 625.697 293.828 626.615C294.616 627.533 295.01 628.832 295.01 630.512V631.469H288.105C288.177 632.341 288.467 633.031 288.975 633.539C289.489 634.047 290.133 634.301 290.908 634.301C291.995 634.301 292.881 633.861 293.564 632.982L294.844 634.203C294.421 634.835 293.854 635.326 293.145 635.678C292.441 636.023 291.65 636.195 290.771 636.195ZM290.488 627.143C289.837 627.143 289.31 627.37 288.906 627.826C288.509 628.282 288.255 628.917 288.145 629.73H292.666V629.555C292.614 628.76 292.402 628.161 292.031 627.758C291.66 627.348 291.146 627.143 290.488 627.143ZM303.174 636C303.07 635.798 302.979 635.469 302.9 635.014C302.145 635.801 301.221 636.195 300.127 636.195C299.066 636.195 298.2 635.893 297.529 635.287C296.859 634.682 296.523 633.933 296.523 633.041C296.523 631.915 296.94 631.052 297.773 630.453C298.613 629.848 299.811 629.545 301.367 629.545H302.822V628.852C302.822 628.305 302.669 627.868 302.363 627.543C302.057 627.211 301.592 627.045 300.967 627.045C300.426 627.045 299.984 627.182 299.639 627.455C299.294 627.722 299.121 628.064 299.121 628.48H296.748C296.748 627.901 296.94 627.361 297.324 626.859C297.708 626.352 298.229 625.954 298.887 625.668C299.551 625.382 300.29 625.238 301.104 625.238C302.34 625.238 303.327 625.551 304.062 626.176C304.798 626.794 305.176 627.667 305.195 628.793V633.559C305.195 634.509 305.329 635.268 305.596 635.834V636H303.174ZM300.566 634.291C301.035 634.291 301.475 634.177 301.885 633.949C302.301 633.721 302.614 633.415 302.822 633.031V631.039H301.543C300.664 631.039 300.003 631.192 299.561 631.498C299.118 631.804 298.896 632.237 298.896 632.797C298.896 633.253 299.046 633.617 299.346 633.891C299.652 634.158 300.059 634.291 300.566 634.291ZM310.654 622.865V625.434H312.52V627.191H310.654V633.09C310.654 633.493 310.732 633.786 310.889 633.969C311.051 634.145 311.338 634.232 311.748 634.232C312.021 634.232 312.298 634.2 312.578 634.135V635.971C312.038 636.12 311.517 636.195 311.016 636.195C309.193 636.195 308.281 635.189 308.281 633.178V627.191H306.543V625.434H308.281V622.865H310.654ZM318.994 636.195C317.49 636.195 316.27 635.723 315.332 634.779C314.401 633.829 313.936 632.566 313.936 630.99V630.697C313.936 629.643 314.137 628.702 314.541 627.875C314.951 627.042 315.524 626.394 316.26 625.932C316.995 625.469 317.816 625.238 318.721 625.238C320.16 625.238 321.27 625.697 322.051 626.615C322.839 627.533 323.232 628.832 323.232 630.512V631.469H316.328C316.4 632.341 316.689 633.031 317.197 633.539C317.712 634.047 318.356 634.301 319.131 634.301C320.218 634.301 321.104 633.861 321.787 632.982L323.066 634.203C322.643 634.835 322.077 635.326 321.367 635.678C320.664 636.023 319.873 636.195 318.994 636.195ZM318.711 627.143C318.06 627.143 317.533 627.37 317.129 627.826C316.732 628.282 316.478 628.917 316.367 629.73H320.889V629.555C320.837 628.76 320.625 628.161 320.254 627.758C319.883 627.348 319.368 627.143 318.711 627.143ZM338.252 632.689H332.744L331.592 636H329.023L334.395 621.781H336.611L341.992 636H339.414L338.252 632.689ZM333.438 630.697H337.559L335.498 624.799L333.438 630.697ZM347.725 634.301C348.317 634.301 348.809 634.128 349.199 633.783C349.59 633.438 349.798 633.012 349.824 632.504H352.061C352.035 633.161 351.829 633.777 351.445 634.35C351.061 634.916 350.54 635.365 349.883 635.697C349.225 636.029 348.516 636.195 347.754 636.195C346.276 636.195 345.104 635.717 344.238 634.76C343.372 633.803 342.939 632.481 342.939 630.795V630.551C342.939 628.943 343.369 627.657 344.229 626.693C345.088 625.723 346.26 625.238 347.744 625.238C349.001 625.238 350.023 625.606 350.811 626.342C351.605 627.071 352.021 628.031 352.061 629.223H349.824C349.798 628.617 349.59 628.119 349.199 627.729C348.815 627.338 348.324 627.143 347.725 627.143C346.956 627.143 346.364 627.423 345.947 627.982C345.531 628.536 345.319 629.379 345.312 630.512V630.893C345.312 632.038 345.518 632.895 345.928 633.461C346.344 634.021 346.943 634.301 347.725 634.301ZM358.193 634.301C358.786 634.301 359.277 634.128 359.668 633.783C360.059 633.438 360.267 633.012 360.293 632.504H362.529C362.503 633.161 362.298 633.777 361.914 634.35C361.53 634.916 361.009 635.365 360.352 635.697C359.694 636.029 358.984 636.195 358.223 636.195C356.745 636.195 355.573 635.717 354.707 634.76C353.841 633.803 353.408 632.481 353.408 630.795V630.551C353.408 628.943 353.838 627.657 354.697 626.693C355.557 625.723 356.729 625.238 358.213 625.238C359.469 625.238 360.492 625.606 361.279 626.342C362.074 627.071 362.49 628.031 362.529 629.223H360.293C360.267 628.617 360.059 628.119 359.668 627.729C359.284 627.338 358.792 627.143 358.193 627.143C357.425 627.143 356.833 627.423 356.416 627.982C355.999 628.536 355.788 629.379 355.781 630.512V630.893C355.781 632.038 355.986 632.895 356.396 633.461C356.813 634.021 357.412 634.301 358.193 634.301ZM363.877 630.619C363.877 629.584 364.082 628.653 364.492 627.826C364.902 626.993 365.479 626.355 366.221 625.912C366.963 625.463 367.816 625.238 368.779 625.238C370.205 625.238 371.361 625.697 372.246 626.615C373.138 627.533 373.62 628.751 373.691 630.268L373.701 630.824C373.701 631.866 373.499 632.797 373.096 633.617C372.699 634.438 372.126 635.072 371.377 635.521C370.635 635.971 369.775 636.195 368.799 636.195C367.308 636.195 366.113 635.701 365.215 634.711C364.323 633.715 363.877 632.39 363.877 630.736V630.619ZM366.25 630.824C366.25 631.911 366.475 632.764 366.924 633.383C367.373 633.995 367.998 634.301 368.799 634.301C369.6 634.301 370.221 633.988 370.664 633.363C371.113 632.738 371.338 631.824 371.338 630.619C371.338 629.551 371.107 628.705 370.645 628.08C370.189 627.455 369.567 627.143 368.779 627.143C368.005 627.143 367.389 627.452 366.934 628.07C366.478 628.682 366.25 629.6 366.25 630.824ZM382.109 634.965C381.413 635.785 380.423 636.195 379.141 636.195C377.995 636.195 377.126 635.86 376.533 635.189C375.947 634.519 375.654 633.549 375.654 632.279V625.434H378.027V632.25C378.027 633.591 378.584 634.262 379.697 634.262C380.85 634.262 381.628 633.848 382.031 633.021V625.434H384.404V636H382.168L382.109 634.965ZM389.023 625.434L389.092 626.654C389.873 625.71 390.898 625.238 392.168 625.238C394.368 625.238 395.488 626.498 395.527 629.018V636H393.154V629.154C393.154 628.484 393.008 627.989 392.715 627.67C392.428 627.344 391.956 627.182 391.299 627.182C390.342 627.182 389.629 627.615 389.16 628.48V636H386.787V625.434H389.023ZM400.928 622.865V625.434H402.793V627.191H400.928V633.09C400.928 633.493 401.006 633.786 401.162 633.969C401.325 634.145 401.611 634.232 402.021 634.232C402.295 634.232 402.572 634.2 402.852 634.135V635.971C402.311 636.12 401.79 636.195 401.289 636.195C399.466 636.195 398.555 635.189 398.555 633.178V627.191H396.816V625.434H398.555V622.865H400.928Z" fill="white" fill-opacity="0.8"/>
<path d="M90.4205 12.0397H341.589V46.2016C341.589 54.4858 334.873 61.2016 326.589 61.2016H105.421C97.1362 61.2016 90.4205 54.4858 90.4205 46.2016V12.0397Z" fill="black"/>
</svg>
