<svg width="1440" height="1024" viewBox="0 0 1440 1024" fill="none" xmlns="http://www.w3.org/2000/svg">
<rect width="1440" height="1024" fill="white"/>
<g filter="url(#filter0_d)">
<rect x="323" y="120" width="794" height="747" rx="11" fill="#006EFF"/>
</g>
<path d="M398.84 234.48C394.488 234.48 391.16 233.088 388.856 230.304C386.552 227.52 385.4 223.152 385.4 217.2C385.4 211.28 386.52 206.928 388.76 204.144C391.032 201.328 394.232 199.92 398.36 199.92C400.792 199.92 402.968 200.368 404.888 201.264C405.752 201.616 406.536 202.048 407.24 202.56L405.08 206.4H404.6C404.248 206.08 403.736 205.728 403.064 205.344C401.656 204.608 400.248 204.24 398.84 204.24C396.728 204.24 395.08 205.216 393.896 207.168C392.712 209.12 392.12 212.464 392.12 217.2C392.12 221.968 392.728 225.328 393.944 227.28C395.192 229.2 396.984 230.16 399.32 230.16C400.792 230.16 402.2 229.808 403.544 229.104C404.248 228.688 404.76 228.32 405.08 228H405.56L407.72 231.84C407.08 232.352 406.296 232.8 405.368 233.184C403.512 234.048 401.336 234.48 398.84 234.48ZM412.048 202.32L413.968 200.4H418.768V211.68C419.088 211.36 419.552 211.008 420.16 210.624C421.44 209.888 422.736 209.52 424.048 209.52C426.96 209.52 429.2 210.32 430.768 211.92C432.368 213.488 433.168 215.728 433.168 218.64V234H426.448V218.64C426.448 217.136 426.128 216 425.488 215.232C424.848 214.464 423.968 214.08 422.848 214.08C421.792 214.08 420.784 214.56 419.824 215.52C419.504 215.904 419.152 216.384 418.768 216.96V234H412.048V202.32ZM447.097 234.48C444.281 234.48 442.089 233.808 440.521 232.464C438.985 231.088 438.217 229.28 438.217 227.04C438.217 224.64 439.081 222.768 440.809 221.424C442.569 220.048 445.305 219.36 449.017 219.36H452.377V218.64C452.377 216.944 452.009 215.728 451.273 214.992C450.537 214.224 449.385 213.84 447.817 213.84C446.473 213.84 445.241 214.16 444.121 214.8C443.673 215.024 443.225 215.344 442.777 215.76H442.297L440.137 211.92C440.905 211.408 441.657 211.008 442.393 210.72C444.473 209.92 446.441 209.52 448.297 209.52C450.537 209.52 452.473 209.92 454.105 210.72C455.737 211.488 456.969 212.56 457.801 213.936C458.665 215.312 459.097 216.88 459.097 218.64V234H454.297L453.817 231.12H453.577C453.033 231.824 452.489 232.384 451.945 232.8C450.601 233.92 448.985 234.48 447.097 234.48ZM448.297 229.92C449.289 229.92 450.265 229.44 451.225 228.48C451.673 228.032 452.057 227.552 452.377 227.04V223.68H449.017C446.297 223.68 444.937 224.8 444.937 227.04C444.937 227.904 445.225 228.608 445.801 229.152C446.409 229.664 447.241 229.92 448.297 229.92ZM474.939 234.48C472.187 234.48 470.011 233.728 468.411 232.224C466.843 230.72 466.059 228.752 466.059 226.32V214.32H462.939V211.44L470.139 204.24H472.779V210H478.299V214.32H472.779V226.32C472.779 227.6 473.019 228.56 473.499 229.2C473.979 229.84 474.619 230.16 475.419 230.16C476.379 230.16 477.323 229.84 478.251 229.2C478.667 228.912 479.083 228.592 479.499 228.24H479.979L482.139 232.08C481.307 232.624 480.587 233.024 479.979 233.28C478.251 234.08 476.571 234.48 474.939 234.48ZM511.651 234.48C507.651 234.48 504.531 233.088 502.291 230.304C500.051 227.488 498.931 223.12 498.931 217.2C498.931 211.28 500.051 206.928 502.291 204.144C504.531 201.328 507.651 199.92 511.651 199.92C515.651 199.92 518.771 201.328 521.011 204.144C523.251 206.928 524.371 211.28 524.371 217.2C524.371 223.12 523.251 227.488 521.011 230.304C518.771 233.088 515.651 234.48 511.651 234.48ZM511.651 230.16C513.411 230.16 514.851 229.168 515.971 227.184C517.091 225.2 517.651 221.872 517.651 217.2C517.651 212.528 517.091 209.2 515.971 207.216C514.851 205.232 513.411 204.24 511.651 204.24C509.891 204.24 508.451 205.232 507.331 207.216C506.211 209.2 505.651 212.528 505.651 217.2C505.651 221.872 506.211 225.2 507.331 227.184C508.451 229.168 509.891 230.16 511.651 230.16ZM530.126 210H534.926L535.406 212.88H535.646C535.966 212.4 536.51 211.84 537.278 211.2C538.782 210.08 540.398 209.52 542.126 209.52C545.038 209.52 547.278 210.32 548.846 211.92C550.446 213.488 551.246 215.728 551.246 218.64V234H544.526V218.64C544.526 217.136 544.206 216 543.566 215.232C542.926 214.464 542.046 214.08 540.926 214.08C539.87 214.08 538.862 214.56 537.902 215.52C537.582 215.904 537.23 216.384 536.846 216.96V234H530.126V210ZM557.735 234V202.32L559.655 200.4H564.455V234H557.735ZM574.548 206.88C573.588 206.88 572.74 206.528 572.004 205.824C571.3 205.088 570.948 204.24 570.948 203.28C570.948 202.32 571.3 201.488 572.004 200.784C572.74 200.048 573.588 199.68 574.548 199.68C575.508 199.68 576.34 200.048 577.044 200.784C577.78 201.488 578.148 202.32 578.148 203.28C578.148 204.24 577.78 205.088 577.044 205.824C576.34 206.528 575.508 206.88 574.548 206.88ZM571.188 234V210H577.908V234H571.188ZM584.641 210H589.441L589.921 212.88H590.161C590.481 212.4 591.025 211.84 591.793 211.2C593.297 210.08 594.913 209.52 596.641 209.52C599.553 209.52 601.793 210.32 603.361 211.92C604.961 213.488 605.761 215.728 605.761 218.64V234H599.041V218.64C599.041 217.136 598.721 216 598.081 215.232C597.441 214.464 596.561 214.08 595.441 214.08C594.385 214.08 593.377 214.56 592.417 215.52C592.097 215.904 591.745 216.384 591.361 216.96V234H584.641V210ZM622.811 234.48C614.811 234.48 610.811 230.32 610.811 222C610.811 217.904 611.739 214.8 613.595 212.688C615.451 210.576 618.043 209.52 621.371 209.52C624.667 209.52 627.243 210.544 629.099 212.592C630.987 214.64 631.931 217.616 631.931 221.52V222.72L630.491 224.16H617.531C617.531 228.16 619.451 230.16 623.291 230.16C624.635 230.16 625.867 229.84 626.987 229.2C627.435 228.976 627.883 228.656 628.331 228.24H628.811L630.971 232.08C630.075 232.624 629.307 233.024 628.667 233.28C626.747 234.08 624.795 234.48 622.811 234.48ZM625.211 219.84C625.211 217.92 624.827 216.448 624.059 215.424C623.323 214.368 622.427 213.84 621.371 213.84C620.315 213.84 619.403 214.368 618.635 215.424C617.899 216.448 617.531 217.92 617.531 219.84H625.211Z" fill="white"/>
<rect x="385.055" y="551.137" width="667.045" height="62.0087" fill="white"/>
<path opacity="0.7" d="M386.204 497.373H392.684C395.732 497.373 397.988 498.069 399.452 499.461C400.94 500.853 401.684 502.917 401.684 505.653C401.684 508.389 400.94 510.453 399.452 511.845C397.988 513.237 395.732 513.933 392.684 513.933H389.804V522.573H386.204V497.373ZM392.684 511.413C394.508 511.413 395.864 510.945 396.752 510.009C397.64 509.073 398.084 507.621 398.084 505.653C398.084 503.685 397.64 502.233 396.752 501.297C395.864 500.361 394.508 499.893 392.684 499.893H389.804V511.413H392.684ZM410.176 522.933C408.304 522.933 406.84 522.441 405.784 521.457C404.752 520.449 404.236 519.081 404.236 517.353C404.236 515.649 404.848 514.329 406.072 513.393C407.32 512.433 409.288 511.953 411.976 511.953H414.856V511.053C414.856 509.637 414.52 508.569 413.848 507.849C413.2 507.105 412.276 506.733 411.076 506.733C410.212 506.733 409.276 507.009 408.268 507.561C407.764 507.849 407.38 508.113 407.116 508.353H406.756L405.496 506.193C405.976 505.833 406.516 505.509 407.116 505.221C408.412 504.549 409.852 504.213 411.436 504.213C412.804 504.213 414.016 504.513 415.072 505.113C416.128 505.689 416.956 506.505 417.556 507.561C418.156 508.593 418.456 509.757 418.456 511.053V522.573H415.936L415.576 520.413H415.396C415.06 520.893 414.64 521.313 414.136 521.673C413.08 522.513 411.76 522.933 410.176 522.933ZM411.076 520.233C411.964 520.233 412.864 519.873 413.776 519.153C414.184 518.817 414.544 518.457 414.856 518.073V514.473H411.976C410.608 514.473 409.576 514.737 408.88 515.265C408.184 515.793 407.836 516.489 407.836 517.353C407.836 518.289 408.1 519.009 408.628 519.513C409.18 519.993 409.996 520.233 411.076 520.233ZM428.887 522.933C426.919 522.933 425.263 522.609 423.919 521.961C423.223 521.649 422.659 521.313 422.227 520.953L423.487 518.793H423.847C424.111 519.033 424.531 519.309 425.107 519.621C426.211 520.149 427.351 520.413 428.527 520.413C429.967 520.413 431.011 520.185 431.659 519.729C432.331 519.273 432.667 518.661 432.667 517.893C432.667 517.101 432.319 516.501 431.623 516.093C430.951 515.685 429.895 515.241 428.455 514.761C427.183 514.329 426.163 513.933 425.395 513.573C424.627 513.213 423.967 512.697 423.415 512.025C422.863 511.353 422.587 510.489 422.587 509.433C422.587 507.825 423.151 506.553 424.279 505.617C425.431 504.681 427.147 504.213 429.427 504.213C431.131 504.213 432.679 504.549 434.071 505.221C434.743 505.533 435.295 505.857 435.727 506.193L434.467 508.353H434.107C433.747 508.089 433.339 507.825 432.883 507.561C431.827 507.009 430.795 506.733 429.787 506.733C428.587 506.733 427.687 506.961 427.087 507.417C426.487 507.849 426.187 508.401 426.187 509.073C426.187 509.865 426.523 510.465 427.195 510.873C427.891 511.281 428.959 511.725 430.399 512.205C431.671 512.637 432.691 513.033 433.459 513.393C434.227 513.753 434.887 514.269 435.439 514.941C435.991 515.613 436.267 516.477 436.267 517.533C436.267 519.237 435.667 520.569 434.467 521.529C433.267 522.465 431.407 522.933 428.887 522.933ZM444.743 522.933C442.775 522.933 441.119 522.609 439.775 521.961C439.079 521.649 438.515 521.313 438.083 520.953L439.343 518.793H439.703C439.967 519.033 440.387 519.309 440.963 519.621C442.067 520.149 443.207 520.413 444.383 520.413C445.823 520.413 446.867 520.185 447.515 519.729C448.187 519.273 448.523 518.661 448.523 517.893C448.523 517.101 448.175 516.501 447.479 516.093C446.807 515.685 445.751 515.241 444.311 514.761C443.039 514.329 442.019 513.933 441.251 513.573C440.483 513.213 439.823 512.697 439.271 512.025C438.719 511.353 438.443 510.489 438.443 509.433C438.443 507.825 439.007 506.553 440.135 505.617C441.287 504.681 443.003 504.213 445.283 504.213C446.987 504.213 448.535 504.549 449.927 505.221C450.599 505.533 451.151 505.857 451.583 506.193L450.323 508.353H449.963C449.603 508.089 449.195 507.825 448.739 507.561C447.683 507.009 446.651 506.733 445.643 506.733C444.443 506.733 443.543 506.961 442.943 507.417C442.343 507.849 442.043 508.401 442.043 509.073C442.043 509.865 442.379 510.465 443.051 510.873C443.747 511.281 444.815 511.725 446.255 512.205C447.527 512.637 448.547 513.033 449.315 513.393C450.083 513.753 450.743 514.269 451.295 514.941C451.847 515.613 452.123 516.477 452.123 517.533C452.123 519.237 451.523 520.569 450.323 521.529C449.123 522.465 447.263 522.933 444.743 522.933ZM453.921 504.573H457.341L460.221 515.553C460.269 515.745 460.317 516.009 460.365 516.345C460.413 516.657 460.461 516.921 460.509 517.137L460.581 517.893H460.725C460.725 517.725 460.749 517.473 460.797 517.137C460.845 516.921 460.893 516.681 460.941 516.417C460.989 516.153 461.049 515.865 461.121 515.553L464.073 504.573H467.673L470.481 515.553C470.529 515.745 470.577 516.009 470.625 516.345C470.673 516.657 470.721 516.921 470.769 517.137L470.877 517.893H471.021C471.021 517.725 471.045 517.473 471.093 517.137C471.213 516.393 471.309 515.865 471.381 515.553L474.261 504.573H477.681L473.001 522.573H469.401L466.341 511.233C466.221 510.849 466.113 510.321 466.017 509.649L465.873 508.713H465.729L465.585 509.649C465.537 510.057 465.429 510.585 465.261 511.233L462.201 522.573H458.601L453.921 504.573ZM488.48 522.933C486.056 522.933 484.16 522.141 482.792 520.557C481.424 518.973 480.74 516.645 480.74 513.573C480.74 510.501 481.424 508.173 482.792 506.589C484.16 505.005 486.056 504.213 488.48 504.213C490.88 504.213 492.764 505.005 494.132 506.589C495.524 508.173 496.22 510.501 496.22 513.573C496.22 516.645 495.524 518.973 494.132 520.557C492.764 522.141 490.88 522.933 488.48 522.933ZM488.48 520.413C489.728 520.413 490.724 519.873 491.468 518.793C492.236 517.689 492.62 515.949 492.62 513.573C492.62 511.197 492.236 509.469 491.468 508.389C490.724 507.285 489.728 506.733 488.48 506.733C487.232 506.733 486.224 507.285 485.456 508.389C484.712 509.469 484.34 511.197 484.34 513.573C484.34 515.949 484.712 517.689 485.456 518.793C486.224 519.873 487.232 520.413 488.48 520.413ZM500.73 504.573H503.25L503.61 506.733H503.79C504.03 506.373 504.438 505.953 505.014 505.473C506.142 504.633 507.414 504.213 508.83 504.213C509.454 504.213 510.006 504.273 510.486 504.393L511.17 504.573L510.63 507.453H510.27C510.102 507.429 509.85 507.369 509.514 507.273C508.986 507.153 508.458 507.093 507.93 507.093C507.138 507.093 506.286 507.453 505.374 508.173C505.062 508.437 504.714 508.797 504.33 509.253V522.573H500.73V504.573ZM519.458 522.933C518.282 522.933 517.202 522.585 516.218 521.889C515.234 521.169 514.442 520.113 513.842 518.721C513.266 517.305 512.978 515.589 512.978 513.573C512.978 510.525 513.638 508.209 514.958 506.625C516.278 505.017 518.018 504.213 520.178 504.213C520.994 504.213 521.918 504.393 522.95 504.753L524.138 505.293V498.453L525.218 497.373H527.738V522.573H525.218L524.858 520.413H524.678C524.342 520.893 523.922 521.313 523.418 521.673C522.362 522.513 521.042 522.933 519.458 522.933ZM520.358 520.233C521.246 520.233 522.146 519.873 523.058 519.153C523.466 518.817 523.826 518.457 524.138 518.073V507.453C523.922 507.333 523.598 507.213 523.166 507.093C522.35 506.853 521.534 506.733 520.718 506.733C519.47 506.733 518.462 507.285 517.694 508.389C516.95 509.469 516.578 511.197 516.578 513.573C516.578 515.853 516.926 517.533 517.622 518.613C518.342 519.693 519.254 520.233 520.358 520.233Z" fill="white"/>
<rect x="385.055" y="371.615" width="667.045" height="62.0087" fill="white"/>
<path opacity="0.7" d="M387.237 335.407V310.207H401.277V312.727H390.837V321.007H399.117V323.527H390.837V332.887H401.277V335.407H387.237ZM405.049 317.407H407.569L407.929 319.567H408.109C408.445 319.183 408.877 318.763 409.405 318.307C410.533 317.467 411.721 317.047 412.969 317.047C414.361 317.047 415.573 317.467 416.605 318.307C417.085 318.739 417.433 319.159 417.649 319.567C417.985 319.207 418.477 318.787 419.125 318.307C420.469 317.467 421.777 317.047 423.049 317.047C424.129 317.047 425.101 317.311 425.965 317.839C426.853 318.343 427.549 319.063 428.053 319.999C428.557 320.935 428.809 321.991 428.809 323.167V335.407H425.209V323.167C425.209 322.183 424.909 321.367 424.309 320.719C423.709 320.071 422.989 319.747 422.149 319.747C421.405 319.747 420.613 320.047 419.773 320.647C419.509 320.815 419.161 321.115 418.729 321.547V335.407H415.129V323.167C415.129 322.183 414.829 321.367 414.229 320.719C413.629 320.071 412.909 319.747 412.069 319.747C411.301 319.747 410.509 320.107 409.693 320.827C409.381 321.091 409.033 321.451 408.649 321.907V335.407H405.049V317.407ZM438.878 335.767C437.006 335.767 435.542 335.275 434.486 334.291C433.454 333.283 432.938 331.915 432.938 330.187C432.938 328.483 433.55 327.163 434.774 326.227C436.022 325.267 437.99 324.787 440.678 324.787H443.558V323.887C443.558 322.471 443.222 321.403 442.55 320.683C441.902 319.939 440.978 319.567 439.778 319.567C438.914 319.567 437.978 319.843 436.97 320.395C436.466 320.683 436.082 320.947 435.818 321.187H435.458L434.198 319.027C434.678 318.667 435.218 318.343 435.818 318.055C437.114 317.383 438.554 317.047 440.138 317.047C441.506 317.047 442.718 317.347 443.774 317.947C444.83 318.523 445.658 319.339 446.258 320.395C446.858 321.427 447.158 322.591 447.158 323.887V335.407H444.638L444.278 333.247H444.098C443.762 333.727 443.342 334.147 442.838 334.507C441.782 335.347 440.462 335.767 438.878 335.767ZM439.778 333.067C440.666 333.067 441.566 332.707 442.478 331.987C442.886 331.651 443.246 331.291 443.558 330.907V327.307H440.678C439.31 327.307 438.278 327.571 437.582 328.099C436.886 328.627 436.538 329.323 436.538 330.187C436.538 331.123 436.802 331.843 437.33 332.347C437.882 332.827 438.698 333.067 439.778 333.067ZM454.169 314.527C453.545 314.527 453.029 314.323 452.621 313.915C452.213 313.507 452.009 312.991 452.009 312.367C452.009 311.743 452.213 311.227 452.621 310.819C453.029 310.411 453.545 310.207 454.169 310.207C454.793 310.207 455.309 310.411 455.717 310.819C456.125 311.227 456.329 311.743 456.329 312.367C456.329 312.991 456.125 313.507 455.717 313.915C455.309 314.323 454.793 314.527 454.169 314.527ZM452.369 335.407V317.407H455.969V335.407H452.369ZM461.369 335.407V311.287L462.449 310.207H464.969V335.407H461.369Z" fill="white"/>
<rect x="384" y="721" width="440.32" height="89.4724" fill="#006EFF" stroke="white" stroke-width="2"/>
<path d="M556.462 777.404V752.204H561.502V774.164H571.222V777.404H556.462ZM581.828 777.764C578.828 777.764 576.488 776.72 574.808 774.632C573.128 772.52 572.288 769.244 572.288 764.804C572.288 760.364 573.128 757.1 574.808 755.012C576.488 752.9 578.828 751.844 581.828 751.844C584.828 751.844 587.168 752.9 588.848 755.012C590.528 757.1 591.368 760.364 591.368 764.804C591.368 769.244 590.528 772.52 588.848 774.632C587.168 776.72 584.828 777.764 581.828 777.764ZM581.828 774.524C583.148 774.524 584.228 773.78 585.068 772.292C585.908 770.804 586.328 768.308 586.328 764.804C586.328 761.3 585.908 758.804 585.068 757.316C584.228 755.828 583.148 755.084 581.828 755.084C580.508 755.084 579.428 755.828 578.588 757.316C577.748 758.804 577.328 761.3 577.328 764.804C577.328 768.308 577.748 770.804 578.588 772.292C579.428 773.78 580.508 774.524 581.828 774.524ZM605.044 777.764C601.78 777.764 599.284 776.72 597.556 774.632C595.828 772.544 594.964 769.268 594.964 764.804C594.964 760.364 595.804 757.1 597.484 755.012C599.188 752.9 601.588 751.844 604.684 751.844C606.508 751.844 608.14 752.18 609.58 752.852C610.228 753.116 610.816 753.44 611.344 753.824L609.724 756.704H609.364C609.1 756.464 608.716 756.2 608.212 755.912C607.156 755.36 606.1 755.084 605.044 755.084C603.46 755.084 602.224 755.816 601.336 757.28C600.448 758.744 600.004 761.252 600.004 764.804C600.004 768.38 600.46 770.9 601.372 772.364C602.308 773.804 603.652 774.524 605.404 774.524C605.812 774.524 606.22 774.464 606.628 774.344C606.796 774.32 606.988 774.26 607.204 774.164V766.604H603.424V763.364H610.804L612.244 764.804V775.784C611.764 776.144 611.152 776.48 610.408 776.792C608.896 777.44 607.108 777.764 605.044 777.764ZM617.458 777.404V752.204H622.498V777.404H617.458ZM628.602 752.204H634.002L640.302 767.324L640.95 768.908L641.238 769.664H641.382L641.274 768.908C641.226 768.62 641.202 768.092 641.202 767.324V752.204H646.242V777.404H640.842L634.542 762.284L633.894 760.7L633.606 759.944H633.462L633.534 760.7C633.606 761.636 633.642 762.164 633.642 762.284V777.404H628.602V752.204Z" fill="white"/>
<path opacity="0.5" d="M937.64 683.36C935.528 683.36 933.716 683.036 932.204 682.388C931.412 682.076 930.764 681.74 930.26 681.38L931.52 679.22H931.88C932.216 679.46 932.708 679.736 933.356 680.048C934.652 680.576 935.96 680.84 937.28 680.84C938.888 680.84 940.124 680.456 940.988 679.688C941.876 678.896 942.32 677.84 942.32 676.52C942.32 675.68 942.092 674.972 941.636 674.396C941.18 673.796 940.616 673.304 939.944 672.92C939.272 672.536 938.348 672.068 937.172 671.516C935.756 670.892 934.616 670.316 933.752 669.788C932.888 669.236 932.144 668.516 931.52 667.628C930.92 666.716 930.62 665.6 930.62 664.28C930.62 662.96 930.92 661.784 931.52 660.752C932.144 659.72 933.02 658.916 934.148 658.34C935.3 657.74 936.644 657.44 938.18 657.44C940.196 657.44 941.948 657.776 943.436 658.448C944.084 658.712 944.672 659.036 945.2 659.42L943.94 661.58H943.58C943.268 661.316 942.836 661.052 942.284 660.788C941.084 660.236 939.836 659.96 938.54 659.96C937.316 659.96 936.284 660.356 935.444 661.148C934.628 661.916 934.22 662.84 934.22 663.92C934.22 664.76 934.448 665.48 934.904 666.08C935.36 666.656 935.924 667.136 936.596 667.52C937.268 667.904 938.192 668.372 939.368 668.924C940.784 669.548 941.924 670.136 942.788 670.688C943.652 671.216 944.384 671.936 944.984 672.848C945.608 673.736 945.92 674.84 945.92 676.16C945.92 678.368 945.2 680.12 943.76 681.416C942.32 682.712 940.28 683.36 937.64 683.36ZM951.676 662.12C951.052 662.12 950.536 661.916 950.128 661.508C949.72 661.1 949.516 660.584 949.516 659.96C949.516 659.336 949.72 658.82 950.128 658.412C950.536 658.004 951.052 657.8 951.676 657.8C952.3 657.8 952.816 658.004 953.224 658.412C953.632 658.82 953.836 659.336 953.836 659.96C953.836 660.584 953.632 661.1 953.224 661.508C952.816 661.916 952.3 662.12 951.676 662.12ZM949.876 683V665H953.476V683H949.876ZM958.876 665H961.396L961.756 667.16H961.936C962.2 666.776 962.62 666.356 963.196 665.9C964.372 665.06 965.692 664.64 967.156 664.64C968.956 664.64 970.42 665.216 971.548 666.368C972.7 667.496 973.276 668.96 973.276 670.76V683H969.676V670.76C969.676 669.752 969.352 668.936 968.704 668.312C968.08 667.664 967.264 667.34 966.256 667.34C965.368 667.34 964.468 667.7 963.556 668.42C963.172 668.756 962.812 669.116 962.476 669.5V683H958.876V665ZM984.613 690.56C982.981 690.56 981.541 690.236 980.293 689.588C979.645 689.276 979.105 688.94 978.673 688.58L979.933 686.42H980.293C980.533 686.66 980.917 686.936 981.445 687.248C982.405 687.776 983.341 688.04 984.253 688.04C985.789 688.04 986.917 687.668 987.637 686.924C988.381 686.18 988.753 684.992 988.753 683.36V682.28C988.393 682.496 987.997 682.676 987.565 682.82C986.677 683.18 985.753 683.36 984.793 683.36C982.633 683.36 980.893 682.568 979.573 680.984C978.253 679.376 977.593 677.048 977.593 674C977.593 671.984 977.881 670.28 978.457 668.888C979.057 667.472 979.849 666.416 980.833 665.72C981.817 665 982.897 664.64 984.073 664.64C985.537 664.64 986.857 665.06 988.033 665.9C988.609 666.356 989.029 666.776 989.293 667.16H989.473L989.833 665H992.353V683.36C992.353 685.544 991.657 687.284 990.265 688.58C988.897 689.9 987.013 690.56 984.613 690.56ZM985.333 680.84C986.149 680.84 986.965 680.72 987.781 680.48C988.213 680.36 988.537 680.24 988.753 680.12V669.5C988.417 669.092 988.057 668.732 987.673 668.42C986.761 667.7 985.861 667.34 984.973 667.34C983.869 667.34 982.957 667.88 982.237 668.96C981.541 670.04 981.193 671.72 981.193 674C981.193 676.376 981.565 678.116 982.309 679.22C983.077 680.3 984.085 680.84 985.333 680.84ZM1016.66 683.36C1014.04 683.36 1012.04 682.664 1010.65 681.272C1009.26 679.856 1008.56 677.792 1008.56 675.08V657.8H1012.16V675.08C1012.16 677.024 1012.56 678.476 1013.35 679.436C1014.14 680.372 1015.24 680.84 1016.66 680.84C1018.08 680.84 1019.18 680.372 1019.97 679.436C1020.76 678.476 1021.16 677.024 1021.16 675.08V657.8H1024.76V675.08C1024.76 677.792 1024.06 679.856 1022.67 681.272C1021.28 682.664 1019.28 683.36 1016.66 683.36ZM1030.52 665H1033.04L1033.4 667.16H1033.58C1033.85 666.776 1034.27 666.356 1034.84 665.9C1036.02 665.06 1037.34 664.64 1038.8 664.64C1039.98 664.64 1041.06 665 1042.04 665.72C1043.03 666.416 1043.81 667.472 1044.38 668.888C1044.98 670.28 1045.28 671.984 1045.28 674C1045.28 677.048 1044.62 679.376 1043.3 680.984C1041.98 682.568 1040.24 683.36 1038.08 683.36C1037.12 683.36 1036.19 683.18 1035.28 682.82C1034.82 682.676 1034.44 682.496 1034.12 682.28V689.12L1033.04 690.2H1030.52V665ZM1037.54 680.84C1038.79 680.84 1039.79 680.3 1040.53 679.22C1041.3 678.116 1041.68 676.376 1041.68 674C1041.68 671.72 1041.32 670.04 1040.6 668.96C1039.91 667.88 1039.01 667.34 1037.9 667.34C1037.02 667.34 1036.12 667.7 1035.2 668.42C1034.82 668.756 1034.46 669.116 1034.12 669.5V680.12C1034.36 680.24 1034.69 680.36 1035.1 680.48C1035.91 680.72 1036.73 680.84 1037.54 680.84Z" fill="white"/>
<defs>
<filter id="filter0_d" x="323" y="120" width="794" height="747" filterUnits="userSpaceOnUse" color-interpolation-filters="sRGB">
<feFlood flood-opacity="0" result="BackgroundImageFix"/>
<feColorMatrix in="SourceAlpha" type="matrix" values="0 0 0 0 0 0 0 0 0 0 0 0 0 0 0 0 0 0 127 0"/>
<feOffset/>
<feColorMatrix type="matrix" values="0 0 0 0 0 0 0 0 0 0 0 0 0 0 0 0 0 0 1 0"/>
<feBlend mode="normal" in2="BackgroundImageFix" result="effect1_dropShadow"/>
<feBlend mode="normal" in="SourceGraphic" in2="effect1_dropShadow" result="shape"/>
</filter>
</defs>
</svg>
